<svg width="449" height="346" viewBox="0 0 449 346" fill="none" xmlns="http://www.w3.org/2000/svg">
    <path d="M35.0189 334.601C32.682 334.601 30.5955 334.033 28.7594 332.898C26.9233 331.763 25.4711 330.211 24.4028 328.241C23.3345 326.272 22.8004 324.035 22.8004 321.531C22.8004 319.027 23.3345 316.807 24.4028 314.871C25.4711 312.901 26.9233 311.366 28.7594 310.264C30.5955 309.129 32.682 308.561 35.0189 308.561C36.8884 308.561 38.5242 308.912 39.9263 309.613C41.3284 310.314 42.4635 311.299 43.3315 312.568V297.945H49.7412V334H44.0325L43.3315 330.445C42.5303 331.546 41.462 332.514 40.1266 333.349C38.8246 334.184 37.1221 334.601 35.0189 334.601ZM36.3709 328.992C38.4407 328.992 40.1266 328.308 41.4286 326.939C42.7639 325.537 43.4316 323.751 43.4316 321.581C43.4316 319.411 42.7639 317.642 41.4286 316.273C40.1266 314.871 38.4407 314.17 36.3709 314.17C34.3345 314.17 32.6486 314.854 31.3133 316.223C29.9779 317.592 29.3102 319.361 29.3102 321.531C29.3102 323.701 29.9779 325.487 31.3133 326.889C32.6486 328.291 34.3345 328.992 36.3709 328.992ZM59.7235 305.307C58.555 305.307 57.5869 304.956 56.8191 304.255C56.0846 303.554 55.7174 302.669 55.7174 301.601C55.7174 300.533 56.0846 299.665 56.8191 298.997C57.5869 298.296 58.555 297.945 59.7235 297.945C60.8919 297.945 61.8434 298.296 62.5778 298.997C63.3456 299.665 63.7295 300.533 63.7295 301.601C63.7295 302.669 63.3456 303.554 62.5778 304.255C61.8434 304.956 60.8919 305.307 59.7235 305.307ZM56.5186 334V309.162H62.9283V334H56.5186ZM80.1345 326.589C78.9326 326.589 77.8143 326.455 76.7794 326.188L74.9266 328.041C75.4941 328.341 76.2619 328.592 77.2301 328.792C78.1982 328.992 79.7672 329.193 81.9372 329.393C85.2422 329.693 87.6458 330.478 89.1481 331.747C90.6504 333.015 91.4015 334.768 91.4015 337.005C91.4015 338.473 91.0009 339.859 90.1997 341.161C89.3985 342.496 88.1633 343.564 86.4941 344.366C84.8249 345.2 82.6883 345.618 80.0844 345.618C76.5457 345.618 73.6914 344.95 71.5214 343.615C69.3515 342.313 68.2665 340.343 68.2665 337.706C68.2665 335.469 69.3515 333.533 71.5214 331.897C70.8537 331.596 70.2695 331.279 69.7688 330.945C69.3014 330.612 68.8841 330.261 68.5169 329.894V328.742L72.8735 324.135C70.9372 322.432 69.9691 320.246 69.9691 317.575C69.9691 315.906 70.3697 314.387 71.1709 313.018C72.0055 311.649 73.1739 310.565 74.6762 309.763C76.1785 308.962 77.9979 308.561 80.1345 308.561C81.5366 308.561 82.8386 308.762 84.0404 309.162H93.4546V313.068L89.1982 313.369C89.8659 314.637 90.1997 316.039 90.1997 317.575C90.1997 319.244 89.7991 320.763 88.9979 322.132C88.1967 323.501 87.0282 324.586 85.4926 325.387C83.9903 326.188 82.2043 326.589 80.1345 326.589ZM80.1345 321.681C81.4364 321.681 82.5047 321.331 83.3393 320.63C84.2073 319.929 84.6413 318.927 84.6413 317.625C84.6413 316.323 84.2073 315.322 83.3393 314.621C82.5047 313.92 81.4364 313.569 80.1345 313.569C78.7657 313.569 77.6641 313.92 76.8295 314.621C75.9949 315.322 75.5776 316.323 75.5776 317.625C75.5776 318.927 75.9949 319.929 76.8295 320.63C77.6641 321.331 78.7657 321.681 80.1345 321.681ZM74.1254 337.055C74.1254 338.29 74.6929 339.208 75.8279 339.809C76.9964 340.443 78.4152 340.76 80.0844 340.76C81.6868 340.76 82.9888 340.426 83.9903 339.759C84.9918 339.124 85.4926 338.256 85.4926 337.155C85.4926 336.253 85.1587 335.502 84.4911 334.901C83.8568 334.3 82.5715 333.933 80.6352 333.8C79.2665 333.7 77.9979 333.549 76.8295 333.349C75.8613 333.883 75.1603 334.467 74.7263 335.102C74.3257 335.736 74.1254 336.387 74.1254 337.055ZM109.069 334.601C106.665 334.601 104.495 334.05 102.559 332.948C100.656 331.847 99.1368 330.328 98.0017 328.392C96.9001 326.422 96.3492 324.152 96.3492 321.581C96.3492 319.011 96.9168 316.757 98.0518 314.821C99.1869 312.851 100.706 311.316 102.609 310.214C104.545 309.112 106.715 308.561 109.119 308.561C111.489 308.561 113.625 309.112 115.528 310.214C117.465 311.316 118.984 312.851 120.085 314.821C121.22 316.757 121.788 319.011 121.788 321.581C121.788 324.152 121.22 326.422 120.085 328.392C118.984 330.328 117.465 331.847 115.528 332.948C113.592 334.05 111.439 334.601 109.069 334.601ZM109.069 329.042C110.738 329.042 112.19 328.425 113.425 327.19C114.66 325.921 115.278 324.052 115.278 321.581C115.278 319.111 114.66 317.258 113.425 316.023C112.19 314.754 110.754 314.12 109.119 314.12C107.416 314.12 105.947 314.754 104.712 316.023C103.51 317.258 102.909 319.111 102.909 321.581C102.909 324.052 103.51 325.921 104.712 327.19C105.947 328.425 107.399 329.042 109.069 329.042ZM126.968 322.182V316.824H147.95V322.182H126.968ZM164.993 334C162.389 334 160.302 333.366 158.733 332.097C157.164 330.829 156.38 328.575 156.38 325.337V314.521H152.123V309.162H156.38L157.131 302.502H162.789V309.162H169.499V314.521H162.789V325.387C162.789 326.589 163.04 327.423 163.54 327.891C164.075 328.325 164.976 328.542 166.245 328.542H169.349V334H164.993ZM186.435 334.601C183.931 334.601 181.711 334.067 179.775 332.998C177.839 331.93 176.32 330.428 175.218 328.492C174.117 326.555 173.566 324.319 173.566 321.781C173.566 319.211 174.1 316.924 175.168 314.921C176.27 312.918 177.772 311.366 179.675 310.264C181.611 309.129 183.881 308.561 186.485 308.561C188.922 308.561 191.076 309.096 192.945 310.164C194.815 311.232 196.267 312.701 197.302 314.571C198.37 316.407 198.904 318.46 198.904 320.73C198.904 321.097 198.887 321.481 198.854 321.882C198.854 322.282 198.837 322.7 198.804 323.134H179.925C180.059 325.07 180.727 326.589 181.928 327.69C183.164 328.792 184.649 329.343 186.385 329.343C187.687 329.343 188.772 329.059 189.64 328.492C190.541 327.891 191.209 327.123 191.643 326.188H198.153C197.686 327.757 196.901 329.193 195.799 330.495C194.731 331.763 193.396 332.765 191.793 333.499C190.224 334.234 188.438 334.601 186.435 334.601ZM186.485 313.769C184.916 313.769 183.531 314.22 182.329 315.121C181.127 315.989 180.359 317.325 180.026 319.127H192.394C192.294 317.492 191.693 316.19 190.592 315.222C189.49 314.253 188.121 313.769 186.485 313.769ZM219.783 305.307C218.614 305.307 217.646 304.956 216.878 304.255C216.144 303.554 215.777 302.669 215.777 301.601C215.777 300.533 216.144 299.665 216.878 298.997C217.646 298.296 218.614 297.945 219.783 297.945C220.951 297.945 221.902 298.296 222.637 298.997C223.405 299.665 223.789 300.533 223.789 301.601C223.789 302.669 223.405 303.554 222.637 304.255C221.902 304.956 220.951 305.307 219.783 305.307ZM211.52 345.017V339.558H213.473C214.575 339.558 215.359 339.341 215.827 338.907C216.294 338.473 216.528 337.739 216.528 336.704V309.162H222.937V336.704C222.937 339.709 222.17 341.845 220.634 343.114C219.132 344.382 217.079 345.017 214.475 345.017H211.52ZM238.189 334.601C236.053 334.601 234.3 334.267 232.931 333.599C231.563 332.898 230.544 331.98 229.877 330.845C229.209 329.71 228.875 328.458 228.875 327.09C228.875 324.786 229.777 322.917 231.579 321.481C233.382 320.046 236.086 319.328 239.692 319.328H246.001V318.727C246.001 317.024 245.517 315.772 244.549 314.971C243.581 314.17 242.379 313.769 240.944 313.769C239.642 313.769 238.507 314.087 237.538 314.721C236.57 315.322 235.969 316.223 235.736 317.425H229.476C229.643 315.622 230.244 314.053 231.279 312.718C232.347 311.382 233.716 310.364 235.385 309.663C237.054 308.929 238.924 308.561 240.994 308.561C244.532 308.561 247.32 309.446 249.356 311.216C251.393 312.985 252.411 315.489 252.411 318.727V334H246.953L246.352 329.994C245.617 331.329 244.582 332.431 243.247 333.299C241.945 334.167 240.259 334.601 238.189 334.601ZM239.642 329.593C241.478 329.593 242.897 328.992 243.898 327.791C244.933 326.589 245.584 325.103 245.851 323.334H240.393C238.69 323.334 237.472 323.651 236.737 324.285C236.003 324.886 235.636 325.637 235.636 326.539C235.636 327.507 236.003 328.258 236.737 328.792C237.472 329.326 238.44 329.593 239.642 329.593ZM239.191 307.159V302.653L250.508 296.543V301.751L239.191 307.159ZM259.88 322.933L259.179 298.947H266.039L265.288 322.933H259.88ZM262.734 334.351C261.532 334.351 260.547 333.983 259.779 333.249C259.045 332.514 258.678 331.63 258.678 330.595C258.678 329.527 259.045 328.625 259.779 327.891C260.547 327.156 261.532 326.789 262.734 326.789C263.869 326.789 264.804 327.156 265.538 327.891C266.306 328.625 266.69 329.527 266.69 330.595C266.69 331.63 266.306 332.514 265.538 333.249C264.804 333.983 263.869 334.351 262.734 334.351Z" fill="white" />
    <g style="mix-blend-mode:multiply">
        <path d="M11.0352 285.618V297.382V309.147" stroke="#F15A24" stroke-width="2.34315" stroke-miterlimit="10" />
    </g>
    <g style="mix-blend-mode:multiply">
        <path d="M1 291.5L11.0343 297.382L10.8263 297.506L1 303.265" stroke="#F15A24" stroke-width="2.34315" stroke-miterlimit="10" />
    </g>
    <g style="mix-blend-mode:multiply">
        <path d="M21.0686 303.265L11.0352 297.382L21.0686 291.5" stroke="#F15A24" stroke-width="2.34315" stroke-miterlimit="10" />
    </g>
    <path d="M2.679 55L21.367 3.9H31.879L50.567 55H40.639L36.551 43.174H16.622L12.461 55H2.679ZM19.177 35.874H33.996L26.55 14.631L19.177 35.874ZM90.4581 55C86.6621 55 83.6204 54.0753 81.3331 52.226C79.0457 50.3767 77.9021 47.0917 77.9021 42.371V26.603H71.6971V18.792H77.9021L78.9971 9.083H87.2461V18.792H97.0281V26.603H87.2461V42.444C87.2461 44.196 87.6111 45.4127 88.3411 46.094C89.1197 46.7267 90.4337 47.043 92.2831 47.043H96.8091V55H90.4581ZM118.629 55.876C114.103 55.876 110.599 54.4647 108.117 51.642C105.683 48.8193 104.467 44.6827 104.467 39.232V18.792H113.738V38.356C113.738 41.4707 114.37 43.8553 115.636 45.51C116.901 47.1647 118.896 47.992 121.622 47.992C124.201 47.992 126.318 47.0673 127.973 45.218C129.676 43.3687 130.528 40.7893 130.528 37.48V18.792H139.872V55H131.623L130.893 48.868C129.773 51.0093 128.143 52.7127 126.002 53.978C123.909 55.2433 121.451 55.876 118.629 55.876ZM161.947 55.876C158.832 55.876 156.277 55.3893 154.282 54.416C152.286 53.394 150.802 52.0557 149.829 50.401C148.855 48.7463 148.369 46.9213 148.369 44.926C148.369 41.568 149.683 38.8427 152.311 36.75C154.939 34.6573 158.881 33.611 164.137 33.611H173.335V32.735C173.335 30.253 172.629 28.428 171.218 27.26C169.806 26.092 168.054 25.508 165.962 25.508C164.064 25.508 162.409 25.9703 160.998 26.895C159.586 27.771 158.71 29.085 158.37 30.837H149.245C149.488 28.209 150.364 25.9217 151.873 23.975C153.43 22.0283 155.425 20.544 157.859 19.522C160.292 18.4513 163.017 17.916 166.035 17.916C171.193 17.916 175.257 19.2057 178.226 21.785C181.194 24.3643 182.679 28.0143 182.679 32.735V55H174.722L173.846 49.16C172.775 51.1067 171.266 52.7127 169.32 53.978C167.422 55.2433 164.964 55.876 161.947 55.876ZM164.064 48.576C166.74 48.576 168.809 47.7 170.269 45.948C171.777 44.196 172.726 42.0303 173.116 39.451H165.159C162.677 39.451 160.9 39.9133 159.83 40.838C158.759 41.714 158.224 42.809 158.224 44.123C158.224 45.5343 158.759 46.6293 159.83 47.408C160.9 48.1867 162.312 48.576 164.064 48.576ZM27.207 116.876C24.4817 116.876 22.097 116.365 20.053 115.343C18.009 114.321 16.3543 112.885 15.089 111.036L14.067 116H5.745V63.44H15.089V84.975C16.257 83.369 17.79 81.9577 19.688 80.741C21.6347 79.5243 24.141 78.916 27.207 78.916C30.6137 78.916 33.6553 79.7433 36.332 81.398C39.0087 83.0527 41.1257 85.3157 42.683 88.187C44.2403 91.0583 45.019 94.319 45.019 97.969C45.019 101.619 44.2403 104.88 42.683 107.751C41.1257 110.574 39.0087 112.812 36.332 114.467C33.6553 116.073 30.6137 116.876 27.207 116.876ZM25.236 108.7C28.2047 108.7 30.6623 107.702 32.609 105.707C34.5557 103.712 35.529 101.132 35.529 97.969C35.529 94.8057 34.5557 92.202 32.609 90.158C30.6623 88.114 28.2047 87.092 25.236 87.092C22.2187 87.092 19.7367 88.114 17.79 90.158C15.892 92.1533 14.943 94.7327 14.943 97.896C14.943 101.059 15.892 103.663 17.79 105.707C19.7367 107.702 22.2187 108.7 25.236 108.7ZM70.7401 116.876C67.2361 116.876 64.0728 116.073 61.2501 114.467C58.4761 112.861 56.2618 110.647 54.6071 107.824C53.0011 104.953 52.1981 101.643 52.1981 97.896C52.1981 94.1487 53.0254 90.8637 54.6801 88.041C56.3348 85.1697 58.5491 82.931 61.3231 81.325C64.1458 79.719 67.3091 78.916 70.8131 78.916C74.2684 78.916 77.3831 79.719 80.1571 81.325C82.9798 82.931 85.1941 85.1697 86.8001 88.041C88.4548 90.8637 89.2821 94.1487 89.2821 97.896C89.2821 101.643 88.4548 104.953 86.8001 107.824C85.1941 110.647 82.9798 112.861 80.1571 114.467C77.3344 116.073 74.1954 116.876 70.7401 116.876ZM70.7401 108.773C73.1734 108.773 75.2904 107.873 77.0911 106.072C78.8918 104.223 79.7921 101.497 79.7921 97.896C79.7921 94.2947 78.8918 91.5937 77.0911 89.793C75.2904 87.9437 73.1978 87.019 70.8131 87.019C68.3311 87.019 66.1898 87.9437 64.3891 89.793C62.6371 91.5937 61.7611 94.2947 61.7611 97.896C61.7611 101.497 62.6371 104.223 64.3891 106.072C66.1898 107.873 68.3068 108.773 70.7401 108.773ZM97.6366 116V63.44H106.981V116H97.6366ZM121.565 74.171C119.862 74.171 118.451 73.66 117.331 72.638C116.261 71.616 115.725 70.3263 115.725 68.769C115.725 67.2117 116.261 65.9463 117.331 64.973C118.451 63.951 119.862 63.44 121.565 63.44C123.269 63.44 124.656 63.951 125.726 64.973C126.846 65.9463 127.405 67.2117 127.405 68.769C127.405 70.3263 126.846 71.616 125.726 72.638C124.656 73.66 123.269 74.171 121.565 74.171ZM116.893 116V79.792H126.237V116H116.893ZM135.99 116V79.792H144.239L144.969 85.924C146.088 83.7827 147.694 82.0793 149.787 80.814C151.928 79.5487 154.435 78.916 157.306 78.916C161.783 78.916 165.263 80.3273 167.745 83.15C170.227 85.9727 171.468 90.1093 171.468 95.56V116H162.124V96.436C162.124 93.3213 161.491 90.9367 160.226 89.282C158.961 87.6273 156.99 86.8 154.313 86.8C151.685 86.8 149.519 87.7247 147.816 89.574C146.161 91.4233 145.334 94.0027 145.334 97.312V116H135.99ZM180.403 116V63.44H189.747V85.34C190.964 83.3447 192.594 81.7873 194.638 80.668C196.731 79.5 199.116 78.916 201.792 78.916C206.27 78.916 209.725 80.3273 212.158 83.15C214.64 85.9727 215.881 90.1093 215.881 95.56V116H206.61V96.436C206.61 93.3213 205.978 90.9367 204.712 89.282C203.496 87.6273 201.549 86.8 198.872 86.8C196.244 86.8 194.054 87.7247 192.302 89.574C190.599 91.4233 189.747 94.0027 189.747 97.312V116H180.403ZM237.299 116.876C234.185 116.876 231.63 116.389 229.634 115.416C227.639 114.394 226.155 113.056 225.181 111.401C224.208 109.746 223.721 107.921 223.721 105.926C223.721 102.568 225.035 99.8427 227.663 97.75C230.291 95.6573 234.233 94.611 239.489 94.611H248.687V93.735C248.687 91.253 247.982 89.428 246.57 88.26C245.159 87.092 243.407 86.508 241.314 86.508C239.416 86.508 237.762 86.9703 236.35 87.895C234.939 88.771 234.063 90.085 233.722 91.837H224.597C224.841 89.209 225.717 86.9217 227.225 84.975C228.783 83.0283 230.778 81.544 233.211 80.522C235.645 79.4513 238.37 78.916 241.387 78.916C246.546 78.916 250.61 80.2057 253.578 82.785C256.547 85.3643 258.031 89.0143 258.031 93.735V116H250.074L249.198 110.16C248.128 112.107 246.619 113.713 244.672 114.978C242.774 116.243 240.317 116.876 237.299 116.876ZM239.416 109.576C242.093 109.576 244.161 108.7 245.621 106.948C247.13 105.196 248.079 103.03 248.468 100.451H240.511C238.029 100.451 236.253 100.913 235.182 101.838C234.112 102.714 233.576 103.809 233.576 105.123C233.576 106.534 234.112 107.629 235.182 108.408C236.253 109.187 237.664 109.576 239.416 109.576ZM301.936 116.876C298.286 116.876 295.049 116.097 292.227 114.54C289.404 112.983 287.19 110.793 285.584 107.97C283.978 105.147 283.175 101.887 283.175 98.188C283.175 94.4407 283.953 91.107 285.511 88.187C287.117 85.267 289.307 83.004 292.081 81.398C294.903 79.7433 298.213 78.916 302.009 78.916C305.561 78.916 308.7 79.6947 311.426 81.252C314.151 82.8093 316.268 84.9507 317.777 87.676C319.334 90.3527 320.113 93.3457 320.113 96.655C320.113 97.1903 320.088 97.75 320.04 98.334C320.04 98.918 320.015 99.5263 319.967 100.159H292.446C292.64 102.982 293.614 105.196 295.366 106.802C297.166 108.408 299.332 109.211 301.863 109.211C303.761 109.211 305.342 108.797 306.608 107.97C307.922 107.094 308.895 105.975 309.528 104.612H319.018C318.336 106.899 317.193 108.992 315.587 110.89C314.029 112.739 312.083 114.199 309.747 115.27C307.459 116.341 304.856 116.876 301.936 116.876ZM302.009 86.508C299.721 86.508 297.702 87.165 295.95 88.479C294.198 89.7443 293.078 91.691 292.592 94.319H310.623C310.477 91.9343 309.601 90.0363 307.995 88.625C306.389 87.2137 304.393 86.508 302.009 86.508ZM299.381 76.872V70.302L315.879 61.396V68.988L299.381 76.872ZM5.745 177V140.792H13.994L14.797 145.683C15.965 143.931 17.498 142.544 19.396 141.522C21.3427 140.451 23.5813 139.916 26.112 139.916C31.7087 139.916 35.675 142.082 38.011 146.413C39.325 144.418 41.077 142.836 43.267 141.668C45.5057 140.5 47.939 139.916 50.567 139.916C55.2877 139.916 58.9133 141.327 61.444 144.15C63.9747 146.973 65.24 151.109 65.24 156.56V177H55.896V157.436C55.896 154.321 55.2877 151.937 54.071 150.282C52.903 148.627 51.078 147.8 48.596 147.8C46.0653 147.8 44.0213 148.725 42.464 150.574C40.9553 152.423 40.201 155.003 40.201 158.312V177H30.857V157.436C30.857 154.321 30.2487 151.937 29.032 150.282C27.8153 148.627 25.9417 147.8 23.411 147.8C20.929 147.8 18.9093 148.725 17.352 150.574C15.8433 152.423 15.089 155.003 15.089 158.312V177H5.745ZM91.7042 177.876C88.0542 177.876 84.8179 177.097 81.9952 175.54C79.1725 173.983 76.9582 171.793 75.3522 168.97C73.7462 166.147 72.9432 162.887 72.9432 159.188C72.9432 155.441 73.7219 152.107 75.2792 149.187C76.8852 146.267 79.0752 144.004 81.8492 142.398C84.6719 140.743 87.9812 139.916 91.7772 139.916C95.3299 139.916 98.4689 140.695 101.194 142.252C103.92 143.809 106.037 145.951 107.545 148.676C109.103 151.353 109.881 154.346 109.881 157.655C109.881 158.19 109.857 158.75 109.808 159.334C109.808 159.918 109.784 160.526 109.735 161.159H82.2142C82.4089 163.982 83.3822 166.196 85.1342 167.802C86.9349 169.408 89.1005 170.211 91.6312 170.211C93.5292 170.211 95.1109 169.797 96.3762 168.97C97.6902 168.094 98.6635 166.975 99.2962 165.612H108.786C108.105 167.899 106.961 169.992 105.355 171.89C103.798 173.739 101.851 175.199 99.5152 176.27C97.2279 177.341 94.6242 177.876 91.7042 177.876ZM91.7772 147.508C89.4899 147.508 87.4702 148.165 85.7182 149.479C83.9662 150.744 82.8469 152.691 82.3602 155.319H100.391C100.245 152.934 99.3692 151.036 97.7632 149.625C96.1572 148.214 94.1619 147.508 91.7772 147.508ZM117.74 177V124.44H127.084V177H117.74ZM136.632 177V124.44H145.976V146.34C147.192 144.345 148.823 142.787 150.867 141.668C152.959 140.5 155.344 139.916 158.021 139.916C162.498 139.916 165.953 141.327 168.387 144.15C170.869 146.973 172.11 151.109 172.11 156.56V177H162.839V157.436C162.839 154.321 162.206 151.937 160.941 150.282C159.724 148.627 157.777 147.8 155.101 147.8C152.473 147.8 150.283 148.725 148.531 150.574C146.827 152.423 145.976 155.003 145.976 158.312V177H136.632ZM198.419 177.876C194.915 177.876 191.751 177.073 188.929 175.467C186.155 173.861 183.94 171.647 182.286 168.824C180.68 165.953 179.877 162.643 179.877 158.896C179.877 155.149 180.704 151.864 182.359 149.041C184.013 146.17 186.228 143.931 189.002 142.325C191.824 140.719 194.988 139.916 198.492 139.916C201.947 139.916 205.062 140.719 207.836 142.325C210.658 143.931 212.873 146.17 214.479 149.041C216.133 151.864 216.961 155.149 216.961 158.896C216.961 162.643 216.133 165.953 214.479 168.824C212.873 171.647 210.658 173.861 207.836 175.467C205.013 177.073 201.874 177.876 198.419 177.876ZM198.419 169.773C200.852 169.773 202.969 168.873 204.77 167.072C206.57 165.223 207.471 162.497 207.471 158.896C207.471 155.295 206.57 152.594 204.77 150.793C202.969 148.944 200.876 148.019 198.492 148.019C196.01 148.019 193.868 148.944 192.068 150.793C190.316 152.594 189.44 155.295 189.44 158.896C189.44 162.497 190.316 165.223 192.068 167.072C193.868 168.873 195.985 169.773 198.419 169.773ZM225.315 177V140.792H233.637L234.513 147.581C235.827 145.245 237.604 143.396 239.842 142.033C242.13 140.622 244.806 139.916 247.872 139.916V149.771H245.244C243.2 149.771 241.375 150.087 239.769 150.72C238.163 151.353 236.898 152.448 235.973 154.005C235.097 155.562 234.659 157.728 234.659 160.502V177H225.315ZM300.415 193.06V171.817C299.247 173.423 297.69 174.834 295.743 176.051C293.845 177.268 291.363 177.876 288.297 177.876C284.891 177.876 281.849 177.049 279.172 175.394C276.496 173.739 274.379 171.476 272.821 168.605C271.264 165.734 270.485 162.473 270.485 158.823C270.485 155.173 271.264 151.937 272.821 149.114C274.379 146.243 276.496 144.004 279.172 142.398C281.849 140.743 284.891 139.916 288.297 139.916C291.023 139.916 293.407 140.427 295.451 141.449C297.495 142.471 299.15 143.907 300.415 145.756L301.437 140.792H309.759V193.06H300.415ZM290.268 169.7C293.286 169.7 295.743 168.702 297.641 166.707C299.588 164.663 300.561 162.059 300.561 158.896C300.561 155.733 299.588 153.153 297.641 151.158C295.743 149.114 293.286 148.092 290.268 148.092C287.3 148.092 284.842 149.09 282.895 151.085C280.949 153.08 279.975 155.66 279.975 158.823C279.975 161.986 280.949 164.59 282.895 166.634C284.842 168.678 287.3 169.7 290.268 169.7ZM332.852 177.876C328.326 177.876 324.822 176.465 322.34 173.642C319.907 170.819 318.69 166.683 318.69 161.232V140.792H327.961V160.356C327.961 163.471 328.594 165.855 329.859 167.51C331.125 169.165 333.12 169.992 335.845 169.992C338.425 169.992 340.542 169.067 342.196 167.218C343.9 165.369 344.751 162.789 344.751 159.48V140.792H354.095V177H345.846L345.116 170.868C343.997 173.009 342.367 174.713 340.225 175.978C338.133 177.243 335.675 177.876 332.852 177.876ZM381.28 177.876C377.63 177.876 374.394 177.097 371.571 175.54C368.749 173.983 366.534 171.793 364.928 168.97C363.322 166.147 362.519 162.887 362.519 159.188C362.519 155.441 363.298 152.107 364.855 149.187C366.461 146.267 368.651 144.004 371.425 142.398C374.248 140.743 377.557 139.916 381.353 139.916C384.906 139.916 388.045 140.695 390.77 142.252C393.496 143.809 395.613 145.951 397.121 148.676C398.679 151.353 399.457 154.346 399.457 157.655C399.457 158.19 399.433 158.75 399.384 159.334C399.384 159.918 399.36 160.526 399.311 161.159H371.79C371.985 163.982 372.958 166.196 374.71 167.802C376.511 169.408 378.677 170.211 381.207 170.211C383.105 170.211 384.687 169.797 385.952 168.97C387.266 168.094 388.24 166.975 388.872 165.612H398.362C397.681 167.899 396.537 169.992 394.931 171.89C393.374 173.739 391.427 175.199 389.091 176.27C386.804 177.341 384.2 177.876 381.28 177.876ZM381.353 147.508C379.066 147.508 377.046 148.165 375.294 149.479C373.542 150.744 372.423 152.691 371.936 155.319H389.967C389.821 152.934 388.945 151.036 387.339 149.625C385.733 148.214 383.738 147.508 381.353 147.508ZM18.228 238.876C15.1133 238.876 12.5583 238.389 10.563 237.416C8.56767 236.394 7.08333 235.056 6.11 233.401C5.13667 231.746 4.65 229.921 4.65 227.926C4.65 224.568 5.964 221.843 8.592 219.75C11.22 217.657 15.162 216.611 20.418 216.611H29.616V215.735C29.616 213.253 28.9103 211.428 27.499 210.26C26.0877 209.092 24.3357 208.508 22.243 208.508C20.345 208.508 18.6903 208.97 17.279 209.895C15.8677 210.771 14.9917 212.085 14.651 213.837H5.526C5.76933 211.209 6.64533 208.922 8.154 206.975C9.71133 205.028 11.7067 203.544 14.14 202.522C16.5733 201.451 19.2987 200.916 22.316 200.916C27.4747 200.916 31.5383 202.206 34.507 204.785C37.4757 207.364 38.96 211.014 38.96 215.735V238H31.003L30.127 232.16C29.0563 234.107 27.5477 235.713 25.601 236.978C23.703 238.243 21.2453 238.876 18.228 238.876ZM20.345 231.576C23.0217 231.576 25.09 230.7 26.55 228.948C28.0587 227.196 29.0077 225.03 29.397 222.451H21.44C18.958 222.451 17.1817 222.913 16.111 223.838C15.0403 224.714 14.505 225.809 14.505 227.123C14.505 228.534 15.0403 229.629 16.111 230.408C17.1817 231.187 18.593 231.576 20.345 231.576ZM65.2714 238V201.792H73.5204L74.3234 206.683C75.4914 204.931 77.0244 203.544 78.9224 202.522C80.869 201.451 83.1077 200.916 85.6384 200.916C91.235 200.916 95.2014 203.082 97.5374 207.413C98.8514 205.418 100.603 203.836 102.793 202.668C105.032 201.5 107.465 200.916 110.093 200.916C114.814 200.916 118.44 202.327 120.97 205.15C123.501 207.973 124.766 212.109 124.766 217.56V238H115.422V218.436C115.422 215.321 114.814 212.937 113.597 211.282C112.429 209.627 110.604 208.8 108.122 208.8C105.592 208.8 103.548 209.725 101.99 211.574C100.482 213.423 99.7274 216.003 99.7274 219.312V238H90.3834V218.436C90.3834 215.321 89.775 212.937 88.5584 211.282C87.3417 209.627 85.468 208.8 82.9374 208.8C80.4554 208.8 78.4357 209.725 76.8784 211.574C75.3697 213.423 74.6154 216.003 74.6154 219.312V238H65.2714ZM138.675 196.171C136.971 196.171 135.56 195.66 134.441 194.638C133.37 193.616 132.835 192.326 132.835 190.769C132.835 189.212 133.37 187.946 134.441 186.973C135.56 185.951 136.971 185.44 138.675 185.44C140.378 185.44 141.765 185.951 142.836 186.973C143.955 187.946 144.515 189.212 144.515 190.769C144.515 192.326 143.955 193.616 142.836 194.638C141.765 195.66 140.378 196.171 138.675 196.171ZM134.003 238V201.792H143.347V238H134.003ZM153.099 238V201.792H161.348L162.078 207.924C163.198 205.783 164.804 204.079 166.896 202.814C169.038 201.549 171.544 200.916 174.415 200.916C178.893 200.916 182.372 202.327 184.854 205.15C187.336 207.973 188.577 212.109 188.577 217.56V238H179.233V218.436C179.233 215.321 178.601 212.937 177.335 211.282C176.07 209.627 174.099 208.8 171.422 208.8C168.794 208.8 166.629 209.725 164.925 211.574C163.271 213.423 162.443 216.003 162.443 219.312V238H153.099ZM197.513 238V185.44H206.857V207.34C208.073 205.345 209.704 203.787 211.748 202.668C213.84 201.5 216.225 200.916 218.902 200.916C223.379 200.916 226.834 202.327 229.268 205.15C231.75 207.973 232.991 212.109 232.991 217.56V238H223.72V218.436C223.72 215.321 223.087 212.937 221.822 211.282C220.605 209.627 218.658 208.8 215.982 208.8C213.354 208.8 211.164 209.725 209.412 211.574C207.708 213.423 206.857 216.003 206.857 219.312V238H197.513ZM254.409 238.876C251.294 238.876 248.739 238.389 246.744 237.416C244.748 236.394 243.264 235.056 242.291 233.401C241.317 231.746 240.831 229.921 240.831 227.926C240.831 224.568 242.145 221.843 244.773 219.75C247.401 217.657 251.343 216.611 256.599 216.611H265.797V215.735C265.797 213.253 265.091 211.428 263.68 210.26C262.268 209.092 260.516 208.508 258.424 208.508C256.526 208.508 254.871 208.97 253.46 209.895C252.048 210.771 251.172 212.085 250.832 213.837H241.707C241.95 211.209 242.826 208.922 244.335 206.975C245.892 205.028 247.887 203.544 250.321 202.522C252.754 201.451 255.479 200.916 258.497 200.916C263.655 200.916 267.719 202.206 270.688 204.785C273.656 207.364 275.141 211.014 275.141 215.735V238H267.184L266.308 232.16C265.237 234.107 263.728 235.713 261.782 236.978C259.884 238.243 257.426 238.876 254.409 238.876ZM256.526 231.576C259.202 231.576 261.271 230.7 262.731 228.948C264.239 227.196 265.188 225.03 265.578 222.451H257.621C255.139 222.451 253.362 222.913 252.292 223.838C251.221 224.714 250.686 225.809 250.686 227.123C250.686 228.534 251.221 229.629 252.292 230.408C253.362 231.187 254.774 231.576 256.526 231.576ZM289.314 222.086L289.022 210.041H292.38C294.862 210.041 297.125 209.822 299.169 209.384C301.213 208.946 302.843 208.094 304.06 206.829C305.276 205.564 305.885 203.714 305.885 201.281C305.885 198.945 305.179 197.12 303.768 195.806C302.356 194.443 300.483 193.762 298.147 193.762C295.713 193.762 293.815 194.443 292.453 195.806C291.09 197.12 290.409 198.921 290.409 201.208H281.576C281.527 198.288 282.16 195.684 283.474 193.397C284.788 191.11 286.686 189.309 289.168 187.995C291.698 186.681 294.716 186.024 298.22 186.024C301.48 186.024 304.352 186.632 306.834 187.849C309.364 189.066 311.335 190.818 312.747 193.105C314.207 195.344 314.937 198.093 314.937 201.354C314.937 204.712 314.182 207.486 312.674 209.676C311.214 211.866 309.194 213.496 306.615 214.567C304.084 215.638 301.14 216.197 297.782 216.246L297.562 222.086H289.314ZM293.475 238.511C291.771 238.511 290.36 237.976 289.241 236.905C288.17 235.834 287.635 234.545 287.635 233.036C287.635 231.479 288.17 230.165 289.241 229.094C290.36 228.023 291.771 227.488 293.475 227.488C295.178 227.488 296.565 228.023 297.636 229.094C298.706 230.165 299.242 231.479 299.242 233.036C299.242 234.545 298.706 235.834 297.636 236.905C296.565 237.976 295.178 238.511 293.475 238.511Z" fill="white" />
</svg>