<svg width="671" height="351" viewBox="0 0 671 351" fill="none" xmlns="http://www.w3.org/2000/svg">
    <path d="M13.527 189L0.241 152.792H10.023L19.221 180.167L28.419 152.792H38.201L24.842 189H13.527ZM54.3676 189.876C51.253 189.876 48.698 189.389 46.7026 188.416C44.7073 187.394 43.223 186.056 42.2496 184.401C41.2763 182.746 40.7896 180.921 40.7896 178.926C40.7896 175.568 42.1036 172.843 44.7316 170.75C47.3596 168.657 51.3016 167.611 56.5576 167.611H65.7556V166.735C65.7556 164.253 65.05 162.428 63.6386 161.26C62.2273 160.092 60.4753 159.508 58.3826 159.508C56.4846 159.508 54.83 159.97 53.4186 160.895C52.0073 161.771 51.1313 163.085 50.7906 164.837H41.6656C41.909 162.209 42.785 159.922 44.2936 157.975C45.851 156.028 47.8463 154.544 50.2796 153.522C52.713 152.451 55.4383 151.916 58.4557 151.916C63.6143 151.916 67.678 153.206 70.6466 155.785C73.6153 158.364 75.0997 162.014 75.0997 166.735V189H67.1426L66.2666 183.16C65.196 185.107 63.6873 186.713 61.7406 187.978C59.8426 189.243 57.385 189.876 54.3676 189.876ZM56.4846 182.576C59.1613 182.576 61.2297 181.7 62.6897 179.948C64.1983 178.196 65.1473 176.03 65.5367 173.451H57.5796C55.0976 173.451 53.3213 173.913 52.2506 174.838C51.18 175.714 50.6446 176.809 50.6446 178.123C50.6446 179.534 51.18 180.629 52.2506 181.408C53.3213 182.187 54.7326 182.576 56.4846 182.576ZM89.0535 147.171C87.3502 147.171 85.9388 146.66 84.8195 145.638C83.7488 144.616 83.2135 143.326 83.2135 141.769C83.2135 140.212 83.7488 138.946 84.8195 137.973C85.9388 136.951 87.3502 136.44 89.0535 136.44C90.7568 136.44 92.1438 136.951 93.2145 137.973C94.3338 138.946 94.8935 140.212 94.8935 141.769C94.8935 143.326 94.3338 144.616 93.2145 145.638C92.1438 146.66 90.7568 147.171 89.0535 147.171ZM84.3815 189V152.792H93.7255V189H84.3815ZM134.451 189.876C129.925 189.876 126.421 188.465 123.939 185.642C121.506 182.819 120.289 178.683 120.289 173.232V152.792H129.56V172.356C129.56 175.471 130.193 177.855 131.458 179.51C132.723 181.165 134.719 181.992 137.444 181.992C140.023 181.992 142.14 181.067 143.795 179.218C145.498 177.369 146.35 174.789 146.35 171.48V152.792H155.694V189H147.445L146.715 182.868C145.596 185.009 143.965 186.713 141.824 187.978C139.731 189.243 137.274 189.876 134.451 189.876ZM165.286 189V152.792H173.535L174.338 157.683C175.506 155.931 177.039 154.544 178.937 153.522C180.884 152.451 183.122 151.916 185.653 151.916C191.25 151.916 195.216 154.082 197.552 158.413C198.866 156.418 200.618 154.836 202.808 153.668C205.047 152.5 207.48 151.916 210.108 151.916C214.829 151.916 218.454 153.327 220.985 156.15C223.516 158.973 224.781 163.109 224.781 168.56V189H215.437V169.436C215.437 166.321 214.829 163.937 213.612 162.282C212.444 160.627 210.619 159.8 208.137 159.8C205.606 159.8 203.562 160.725 202.005 162.574C200.496 164.423 199.742 167.003 199.742 170.312V189H190.398V169.436C190.398 166.321 189.79 163.937 188.573 162.282C187.356 160.627 185.483 159.8 182.952 159.8C180.47 159.8 178.45 160.725 176.893 162.574C175.384 164.423 174.63 167.003 174.63 170.312V189H165.286ZM3.745 269V232.792H11.994L12.797 237.683C13.965 235.931 15.498 234.544 17.396 233.522C19.3427 232.451 21.5813 231.916 24.112 231.916C29.7087 231.916 33.675 234.082 36.011 238.413C37.325 236.418 39.077 234.836 41.267 233.668C43.5057 232.5 45.939 231.916 48.567 231.916C53.2877 231.916 56.9133 233.327 59.444 236.15C61.9747 238.973 63.24 243.109 63.24 248.56V269H53.896V249.436C53.896 246.321 53.2877 243.937 52.071 242.282C50.903 240.627 49.078 239.8 46.596 239.8C44.0653 239.8 42.0213 240.725 40.464 242.574C38.9553 244.423 38.201 247.003 38.201 250.312V269H28.857V249.436C28.857 246.321 28.2487 243.937 27.032 242.282C25.8153 240.627 23.9417 239.8 21.411 239.8C18.929 239.8 16.9093 240.725 15.352 242.574C13.8433 244.423 13.089 247.003 13.089 250.312V269H3.745ZM89.7042 269.876C86.0542 269.876 82.8179 269.097 79.9952 267.54C77.1725 265.983 74.9582 263.793 73.3522 260.97C71.7462 258.147 70.9432 254.887 70.9432 251.188C70.9432 247.441 71.7219 244.107 73.2792 241.187C74.8852 238.267 77.0752 236.004 79.8492 234.398C82.6719 232.743 85.9812 231.916 89.7772 231.916C93.3299 231.916 96.4689 232.695 99.1942 234.252C101.92 235.809 104.037 237.951 105.545 240.676C107.103 243.353 107.881 246.346 107.881 249.655C107.881 250.19 107.857 250.75 107.808 251.334C107.808 251.918 107.784 252.526 107.735 253.159H80.2142C80.4089 255.982 81.3822 258.196 83.1342 259.802C84.9349 261.408 87.1005 262.211 89.6312 262.211C91.5292 262.211 93.1109 261.797 94.3762 260.97C95.6902 260.094 96.6635 258.975 97.2962 257.612H106.786C106.105 259.899 104.961 261.992 103.355 263.89C101.798 265.739 99.8512 267.199 97.5152 268.27C95.2279 269.341 92.6242 269.876 89.7042 269.876ZM89.7772 239.508C87.4899 239.508 85.4702 240.165 83.7182 241.479C81.9662 242.744 80.8469 244.691 80.3602 247.319H98.3912C98.2452 244.934 97.3692 243.036 95.7632 241.625C94.1572 240.214 92.1619 239.508 89.7772 239.508ZM115.74 269V232.792H124.062L124.938 239.581C126.252 237.245 128.028 235.396 130.267 234.033C132.554 232.622 135.231 231.916 138.297 231.916V241.771H135.669C133.625 241.771 131.8 242.087 130.194 242.72C128.588 243.353 127.323 244.448 126.398 246.005C125.522 247.562 125.084 249.728 125.084 252.502V269H115.74ZM159.158 258.196C157.406 258.196 155.776 258.001 154.267 257.612L151.566 260.313C152.393 260.751 153.513 261.116 154.924 261.408C156.335 261.7 158.623 261.992 161.786 262.284C166.604 262.722 170.108 263.866 172.298 265.715C174.488 267.564 175.583 270.119 175.583 273.38C175.583 275.521 174.999 277.541 173.831 279.439C172.663 281.386 170.862 282.943 168.429 284.111C165.996 285.328 162.881 285.936 159.085 285.936C153.926 285.936 149.765 284.963 146.602 283.016C143.439 281.118 141.857 278.247 141.857 274.402C141.857 271.141 143.439 268.319 146.602 265.934C145.629 265.496 144.777 265.034 144.047 264.547C143.366 264.06 142.757 263.549 142.222 263.014V261.335L148.573 254.619C145.75 252.137 144.339 248.949 144.339 245.056C144.339 242.623 144.923 240.408 146.091 238.413C147.308 236.418 149.011 234.836 151.201 233.668C153.391 232.5 156.043 231.916 159.158 231.916C161.202 231.916 163.1 232.208 164.852 232.792H178.576V238.486L172.371 238.924C173.344 240.773 173.831 242.817 173.831 245.056C173.831 247.489 173.247 249.704 172.079 251.699C170.911 253.694 169.208 255.276 166.969 256.444C164.779 257.612 162.175 258.196 159.158 258.196ZM159.158 251.042C161.056 251.042 162.613 250.531 163.83 249.509C165.095 248.487 165.728 247.027 165.728 245.129C165.728 243.231 165.095 241.771 163.83 240.749C162.613 239.727 161.056 239.216 159.158 239.216C157.163 239.216 155.557 239.727 154.34 240.749C153.123 241.771 152.515 243.231 152.515 245.129C152.515 247.027 153.123 248.487 154.34 249.509C155.557 250.531 157.163 251.042 159.158 251.042ZM150.398 273.453C150.398 275.254 151.225 276.592 152.88 277.468C154.583 278.393 156.652 278.855 159.085 278.855C161.421 278.855 163.319 278.368 164.779 277.395C166.239 276.47 166.969 275.205 166.969 273.599C166.969 272.285 166.482 271.19 165.509 270.314C164.584 269.438 162.711 268.903 159.888 268.708C157.893 268.562 156.043 268.343 154.34 268.051C152.929 268.83 151.907 269.681 151.274 270.606C150.69 271.531 150.398 272.48 150.398 273.453ZM198.968 269.876C194.442 269.876 190.938 268.465 188.456 265.642C186.022 262.819 184.806 258.683 184.806 253.232V232.792H194.077V252.356C194.077 255.471 194.709 257.855 195.975 259.51C197.24 261.165 199.235 261.992 201.961 261.992C204.54 261.992 206.657 261.067 208.312 259.218C210.015 257.369 210.867 254.789 210.867 251.48V232.792H220.211V269H211.962L211.232 262.868C210.112 265.009 208.482 266.713 206.341 267.978C204.248 269.243 201.79 269.876 198.968 269.876ZM229.803 269V216.44H239.147V269H229.803ZM248.694 269V216.44H258.038V238.34C259.255 236.345 260.885 234.787 262.929 233.668C265.022 232.5 267.407 231.916 270.083 231.916C274.561 231.916 278.016 233.327 280.449 236.15C282.931 238.973 284.172 243.109 284.172 248.56V269H274.901V249.436C274.901 246.321 274.269 243.937 273.003 242.282C271.787 240.627 269.84 239.8 267.163 239.8C264.535 239.8 262.345 240.725 260.593 242.574C258.89 244.423 258.038 247.003 258.038 250.312V269H248.694ZM298.144 227.171C296.441 227.171 295.03 226.66 293.91 225.638C292.84 224.616 292.304 223.326 292.304 221.769C292.304 220.212 292.84 218.946 293.91 217.973C295.03 216.951 296.441 216.44 298.144 216.44C299.848 216.44 301.235 216.951 302.305 217.973C303.425 218.946 303.984 220.212 303.984 221.769C303.984 223.326 303.425 224.616 302.305 225.638C301.235 226.66 299.848 227.171 298.144 227.171ZM293.472 269V232.792H302.816V269H293.472ZM312.569 269V232.792H320.818L321.548 238.924C322.668 236.783 324.274 235.079 326.366 233.814C328.508 232.549 331.014 231.916 333.885 231.916C338.363 231.916 341.842 233.327 344.324 236.15C346.806 238.973 348.047 243.109 348.047 248.56V269H338.703V249.436C338.703 246.321 338.071 243.937 336.805 242.282C335.54 240.627 333.569 239.8 330.892 239.8C328.264 239.8 326.099 240.725 324.395 242.574C322.741 244.423 321.913 247.003 321.913 250.312V269H312.569ZM356.982 269V216.44H366.326V238.34C367.543 236.345 369.173 234.787 371.217 233.668C373.31 232.5 375.695 231.916 378.371 231.916C382.849 231.916 386.304 233.327 388.737 236.15C391.219 238.973 392.46 243.109 392.46 248.56V269H383.189V249.436C383.189 246.321 382.557 243.937 381.291 242.282C380.075 240.627 378.128 239.8 375.451 239.8C372.823 239.8 370.633 240.725 368.881 242.574C367.178 244.423 366.326 247.003 366.326 250.312V269H356.982ZM418.769 269.876C415.265 269.876 412.102 269.073 409.279 267.467C406.505 265.861 404.291 263.647 402.636 260.824C401.03 257.953 400.227 254.643 400.227 250.896C400.227 247.149 401.055 243.864 402.709 241.041C404.364 238.17 406.578 235.931 409.352 234.325C412.175 232.719 415.338 231.916 418.842 231.916C422.298 231.916 425.412 232.719 428.186 234.325C431.009 235.931 433.223 238.17 434.829 241.041C436.484 243.864 437.311 247.149 437.311 250.896C437.311 254.643 436.484 257.953 434.829 260.824C433.223 263.647 431.009 265.861 428.186 267.467C425.364 269.073 422.225 269.876 418.769 269.876ZM418.769 261.773C421.203 261.773 423.32 260.873 425.12 259.072C426.921 257.223 427.821 254.497 427.821 250.896C427.821 247.295 426.921 244.594 425.12 242.793C423.32 240.944 421.227 240.019 418.842 240.019C416.36 240.019 414.219 240.944 412.418 242.793C410.666 244.594 409.79 247.295 409.79 250.896C409.79 254.497 410.666 257.223 412.418 259.072C414.219 260.873 416.336 261.773 418.769 261.773ZM448.712 253.086L448.42 241.041H451.778C454.26 241.041 456.523 240.822 458.567 240.384C460.611 239.946 462.241 239.094 463.458 237.829C464.675 236.564 465.283 234.714 465.283 232.281C465.283 229.945 464.577 228.12 463.166 226.806C461.755 225.443 459.881 224.762 457.545 224.762C455.112 224.762 453.214 225.443 451.851 226.806C450.488 228.12 449.807 229.921 449.807 232.208H440.974C440.925 229.288 441.558 226.684 442.872 224.397C444.186 222.11 446.084 220.309 448.566 218.995C451.097 217.681 454.114 217.024 457.618 217.024C460.879 217.024 463.75 217.632 466.232 218.849C468.763 220.066 470.734 221.818 472.145 224.105C473.605 226.344 474.335 229.093 474.335 232.354C474.335 235.712 473.581 238.486 472.072 240.676C470.612 242.866 468.592 244.496 466.013 245.567C463.482 246.638 460.538 247.197 457.18 247.246L456.961 253.086H448.712ZM452.873 269.511C451.17 269.511 449.758 268.976 448.639 267.905C447.568 266.834 447.033 265.545 447.033 264.036C447.033 262.479 447.568 261.165 448.639 260.094C449.758 259.023 451.17 258.488 452.873 258.488C454.576 258.488 455.963 259.023 457.034 260.094C458.105 261.165 458.64 262.479 458.64 264.036C458.64 265.545 458.105 266.834 457.034 267.905C455.963 268.976 454.576 269.511 452.873 269.511Z" fill="#1D1D1D" />
    <path d="M358.642 345.3C357.476 345.3 356.434 345.017 355.517 344.45C354.601 343.883 353.876 343.108 353.342 342.125C352.809 341.142 352.542 340.025 352.542 338.775C352.542 337.525 352.809 336.417 353.342 335.45C353.876 334.467 354.601 333.7 355.517 333.15C356.434 332.583 357.476 332.3 358.642 332.3C359.576 332.3 360.392 332.475 361.092 332.825C361.792 333.175 362.359 333.667 362.792 334.3V327H365.992V345H363.142L362.792 343.225C362.392 343.775 361.859 344.258 361.192 344.675C360.542 345.092 359.692 345.3 358.642 345.3ZM359.317 342.5C360.351 342.5 361.192 342.158 361.842 341.475C362.509 340.775 362.842 339.883 362.842 338.8C362.842 337.717 362.509 336.833 361.842 336.15C361.192 335.45 360.351 335.1 359.317 335.1C358.301 335.1 357.459 335.442 356.792 336.125C356.126 336.808 355.792 337.692 355.792 338.775C355.792 339.858 356.126 340.75 356.792 341.45C357.459 342.15 358.301 342.5 359.317 342.5ZM370.976 330.675C370.393 330.675 369.909 330.5 369.526 330.15C369.159 329.8 368.976 329.358 368.976 328.825C368.976 328.292 369.159 327.858 369.526 327.525C369.909 327.175 370.393 327 370.976 327C371.559 327 372.034 327.175 372.401 327.525C372.784 327.858 372.976 328.292 372.976 328.825C372.976 329.358 372.784 329.8 372.401 330.15C372.034 330.5 371.559 330.675 370.976 330.675ZM369.376 345V332.6H372.576V345H369.376ZM381.166 341.3C380.566 341.3 380.008 341.233 379.491 341.1L378.566 342.025C378.849 342.175 379.233 342.3 379.716 342.4C380.199 342.5 380.983 342.6 382.066 342.7C383.716 342.85 384.916 343.242 385.666 343.875C386.416 344.508 386.791 345.383 386.791 346.5C386.791 347.233 386.591 347.925 386.191 348.575C385.791 349.242 385.174 349.775 384.341 350.175C383.508 350.592 382.441 350.8 381.141 350.8C379.374 350.8 377.949 350.467 376.866 349.8C375.783 349.15 375.241 348.167 375.241 346.85C375.241 345.733 375.783 344.767 376.866 343.95C376.533 343.8 376.241 343.642 375.991 343.475C375.758 343.308 375.549 343.133 375.366 342.95V342.375L377.541 340.075C376.574 339.225 376.091 338.133 376.091 336.8C376.091 335.967 376.291 335.208 376.691 334.525C377.108 333.842 377.691 333.3 378.441 332.9C379.191 332.5 380.099 332.3 381.166 332.3C381.866 332.3 382.516 332.4 383.116 332.6H387.816V334.55L385.691 334.7C386.024 335.333 386.191 336.033 386.191 336.8C386.191 337.633 385.991 338.392 385.591 339.075C385.191 339.758 384.608 340.3 383.841 340.7C383.091 341.1 382.199 341.3 381.166 341.3ZM381.166 338.85C381.816 338.85 382.349 338.675 382.766 338.325C383.199 337.975 383.416 337.475 383.416 336.825C383.416 336.175 383.199 335.675 382.766 335.325C382.349 334.975 381.816 334.8 381.166 334.8C380.483 334.8 379.933 334.975 379.516 335.325C379.099 335.675 378.891 336.175 378.891 336.825C378.891 337.475 379.099 337.975 379.516 338.325C379.933 338.675 380.483 338.85 381.166 338.85ZM378.166 346.525C378.166 347.142 378.449 347.6 379.016 347.9C379.599 348.217 380.308 348.375 381.141 348.375C381.941 348.375 382.591 348.208 383.091 347.875C383.591 347.558 383.841 347.125 383.841 346.575C383.841 346.125 383.674 345.75 383.341 345.45C383.024 345.15 382.383 344.967 381.416 344.9C380.733 344.85 380.099 344.775 379.516 344.675C379.033 344.942 378.683 345.233 378.466 345.55C378.266 345.867 378.166 346.192 378.166 346.525ZM395.611 345.3C394.411 345.3 393.328 345.025 392.361 344.475C391.411 343.925 390.653 343.167 390.086 342.2C389.536 341.217 389.261 340.083 389.261 338.8C389.261 337.517 389.544 336.392 390.111 335.425C390.678 334.442 391.436 333.675 392.386 333.125C393.353 332.575 394.436 332.3 395.636 332.3C396.819 332.3 397.886 332.575 398.836 333.125C399.803 333.675 400.561 334.442 401.111 335.425C401.678 336.392 401.961 337.517 401.961 338.8C401.961 340.083 401.678 341.217 401.111 342.2C400.561 343.167 399.803 343.925 398.836 344.475C397.869 345.025 396.794 345.3 395.611 345.3ZM395.611 342.525C396.444 342.525 397.169 342.217 397.786 341.6C398.403 340.967 398.711 340.033 398.711 338.8C398.711 337.567 398.403 336.642 397.786 336.025C397.169 335.392 396.453 335.075 395.636 335.075C394.786 335.075 394.053 335.392 393.436 336.025C392.836 336.642 392.536 337.567 392.536 338.8C392.536 340.033 392.836 340.967 393.436 341.6C394.053 342.217 394.778 342.525 395.611 342.525ZM404.547 339.1V336.425H415.022V339.1H404.547ZM423.531 345C422.231 345 421.189 344.683 420.406 344.05C419.623 343.417 419.231 342.292 419.231 340.675V335.275H417.106V332.6H419.231L419.606 329.275H422.431V332.6H425.781V335.275H422.431V340.7C422.431 341.3 422.556 341.717 422.806 341.95C423.073 342.167 423.523 342.275 424.156 342.275H425.706V345H423.531ZM434.236 345.3C432.986 345.3 431.878 345.033 430.911 344.5C429.944 343.967 429.186 343.217 428.636 342.25C428.086 341.283 427.811 340.167 427.811 338.9C427.811 337.617 428.078 336.475 428.611 335.475C429.161 334.475 429.911 333.7 430.861 333.15C431.828 332.583 432.961 332.3 434.261 332.3C435.478 332.3 436.553 332.567 437.486 333.1C438.419 333.633 439.144 334.367 439.661 335.3C440.194 336.217 440.461 337.242 440.461 338.375C440.461 338.558 440.453 338.75 440.436 338.95C440.436 339.15 440.428 339.358 440.411 339.575H430.986C431.053 340.542 431.386 341.3 431.986 341.85C432.603 342.4 433.344 342.675 434.211 342.675C434.861 342.675 435.403 342.533 435.836 342.25C436.286 341.95 436.619 341.567 436.836 341.1H440.086C439.853 341.883 439.461 342.6 438.911 343.25C438.378 343.883 437.711 344.383 436.911 344.75C436.128 345.117 435.236 345.3 434.236 345.3ZM434.261 334.9C433.478 334.9 432.786 335.125 432.186 335.575C431.586 336.008 431.203 336.675 431.036 337.575H437.211C437.161 336.758 436.861 336.108 436.311 335.625C435.761 335.142 435.078 334.9 434.261 334.9ZM450.884 330.675C450.301 330.675 449.818 330.5 449.434 330.15C449.068 329.8 448.884 329.358 448.884 328.825C448.884 328.292 449.068 327.858 449.434 327.525C449.818 327.175 450.301 327 450.884 327C451.468 327 451.943 327.175 452.309 327.525C452.693 327.858 452.884 328.292 452.884 328.825C452.884 329.358 452.693 329.8 452.309 330.15C451.943 330.5 451.468 330.675 450.884 330.675ZM446.759 350.5V347.775H447.734C448.284 347.775 448.676 347.667 448.909 347.45C449.143 347.233 449.259 346.867 449.259 346.35V332.6H452.459V346.35C452.459 347.85 452.076 348.917 451.309 349.55C450.559 350.183 449.534 350.5 448.234 350.5H446.759ZM460.074 345.3C459.007 345.3 458.132 345.133 457.449 344.8C456.765 344.45 456.257 343.992 455.924 343.425C455.59 342.858 455.424 342.233 455.424 341.55C455.424 340.4 455.874 339.467 456.774 338.75C457.674 338.033 459.024 337.675 460.824 337.675H463.974V337.375C463.974 336.525 463.732 335.9 463.249 335.5C462.765 335.1 462.165 334.9 461.449 334.9C460.799 334.9 460.232 335.058 459.749 335.375C459.265 335.675 458.965 336.125 458.849 336.725H455.724C455.807 335.825 456.107 335.042 456.624 334.375C457.157 333.708 457.84 333.2 458.674 332.85C459.507 332.483 460.44 332.3 461.474 332.3C463.24 332.3 464.632 332.742 465.649 333.625C466.665 334.508 467.174 335.758 467.174 337.375V345H464.449L464.149 343C463.782 343.667 463.265 344.217 462.599 344.65C461.949 345.083 461.107 345.3 460.074 345.3ZM460.799 342.8C461.715 342.8 462.424 342.5 462.924 341.9C463.44 341.3 463.765 340.558 463.899 339.675H461.174C460.324 339.675 459.715 339.833 459.349 340.15C458.982 340.45 458.799 340.825 458.799 341.275C458.799 341.758 458.982 342.133 459.349 342.4C459.715 342.667 460.199 342.8 460.799 342.8ZM460.574 331.6V329.35L466.224 326.3V328.9L460.574 331.6ZM470.903 339.475L470.553 327.5H473.978L473.603 339.475H470.903ZM472.328 345.175C471.728 345.175 471.236 344.992 470.853 344.625C470.486 344.258 470.303 343.817 470.303 343.3C470.303 342.767 470.486 342.317 470.853 341.95C471.236 341.583 471.728 341.4 472.328 341.4C472.894 341.4 473.361 341.583 473.728 341.95C474.111 342.317 474.303 342.767 474.303 343.3C474.303 343.817 474.111 344.258 473.728 344.625C473.361 344.992 472.894 345.175 472.328 345.175Z" fill="#1D1D1D" />
    <g style="mix-blend-mode:multiply">
        <path d="M345.049 316V324.265V332.529" stroke="#F15A24" stroke-width="1.64605" stroke-miterlimit="10" />
    </g>
    <g style="mix-blend-mode:multiply">
        <path d="M338 320.133L345.049 324.264L344.903 324.351L338 328.397" stroke="#F15A24" stroke-width="1.64605" stroke-miterlimit="10" />
    </g>
    <g style="mix-blend-mode:multiply">
        <path d="M352.097 328.397L345.049 324.264L352.097 320.133" stroke="#F15A24" stroke-width="1.64605" stroke-miterlimit="10" />
    </g>
    <g style="mix-blend-mode:multiply">
        <path d="M576.504 0V103.765V207.529" stroke="#F15A24" stroke-width="20.6669" stroke-miterlimit="10" />
    </g>
    <g style="mix-blend-mode:multiply">
        <path d="M488 51.8845L576.504 103.761L574.67 104.852L488 155.645" stroke="#F15A24" stroke-width="20.6669" stroke-miterlimit="10" />
    </g>
    <g style="mix-blend-mode:multiply">
        <path d="M665 155.645L576.504 103.761L665 51.8845" stroke="#F15A24" stroke-width="20.6669" stroke-miterlimit="10" />
    </g>
</svg>
    