<svg width="346" height="250" viewBox="0 0 346 250" fill="none" xmlns="http://www.w3.org/2000/svg">
    <path d="M10.547 135L0.901 108.712H8.003L14.681 128.587L21.359 108.712H28.461L18.762 135H10.547ZM40.1984 135.636C37.9371 135.636 36.0821 135.283 34.6334 134.576C33.1848 133.834 32.1071 132.862 31.4004 131.661C30.6938 130.46 30.3404 129.135 30.3404 127.686C30.3404 125.248 31.2944 123.269 33.2024 121.75C35.1104 120.231 37.9724 119.471 41.7884 119.471H48.4664V118.835C48.4664 117.033 47.9541 115.708 46.9294 114.86C45.9048 114.012 44.6328 113.588 43.1134 113.588C41.7354 113.588 40.5341 113.924 39.5094 114.595C38.4848 115.231 37.8488 116.185 37.6014 117.457H30.9764C31.1531 115.549 31.7891 113.888 32.8844 112.475C34.0151 111.062 35.4638 109.984 37.2304 109.242C38.9971 108.465 40.9758 108.076 43.1664 108.076C46.9118 108.076 49.8621 109.012 52.0174 110.885C54.1728 112.758 55.2504 115.408 55.2504 118.835V135H49.4734L48.8374 130.76C48.0601 132.173 46.9648 133.339 45.5514 134.258C44.1734 135.177 42.3891 135.636 40.1984 135.636ZM41.7354 130.336C43.6788 130.336 45.1804 129.7 46.2404 128.428C47.3358 127.156 48.0248 125.584 48.3074 123.711H42.5304C40.7284 123.711 39.4388 124.047 38.6614 124.718C37.8841 125.354 37.4954 126.149 37.4954 127.103C37.4954 128.128 37.8841 128.923 38.6614 129.488C39.4388 130.053 40.4634 130.336 41.7354 130.336ZM65.3813 104.631C64.1446 104.631 63.12 104.26 62.3073 103.518C61.53 102.776 61.1413 101.84 61.1413 100.709C61.1413 99.5783 61.53 98.6597 62.3073 97.953C63.12 97.211 64.1446 96.84 65.3813 96.84C66.618 96.84 67.625 97.211 68.4023 97.953C69.215 98.6597 69.6213 99.5783 69.6213 100.709C69.6213 101.84 69.215 102.776 68.4023 103.518C67.625 104.26 66.618 104.631 65.3813 104.631ZM61.9893 135V108.712H68.7733V135H61.9893ZM98.3411 135.636C95.0551 135.636 92.5111 134.611 90.7091 132.562C88.9424 130.513 88.0591 127.509 88.0591 123.552V108.712H94.7901V122.916C94.7901 125.177 95.2494 126.909 96.1681 128.11C97.0868 129.311 98.5354 129.912 100.514 129.912C102.387 129.912 103.924 129.241 105.125 127.898C106.362 126.555 106.98 124.683 106.98 122.28V108.712H113.764V135H107.775L107.245 130.548C106.432 132.103 105.249 133.339 103.694 134.258C102.175 135.177 100.39 135.636 98.3411 135.636ZM120.728 135V108.712H126.717L127.3 112.263C128.148 110.991 129.261 109.984 130.639 109.242C132.053 108.465 133.678 108.076 135.515 108.076C139.579 108.076 142.458 109.648 144.154 112.793C145.108 111.344 146.38 110.196 147.97 109.348C149.596 108.5 151.362 108.076 153.27 108.076C156.698 108.076 159.33 109.101 161.167 111.15C163.005 113.199 163.923 116.203 163.923 120.16V135H157.139V120.796C157.139 118.535 156.698 116.803 155.814 115.602C154.966 114.401 153.641 113.8 151.839 113.8C150.002 113.8 148.518 114.471 147.387 115.814C146.292 117.157 145.744 119.029 145.744 121.432V135H138.96V120.796C138.96 118.535 138.519 116.803 137.635 115.602C136.752 114.401 135.392 113.8 133.554 113.8C131.752 113.8 130.286 114.471 129.155 115.814C128.06 117.157 127.512 119.029 127.512 121.432V135H120.728ZM3.445 193V166.712H9.434L10.017 170.263C10.865 168.991 11.978 167.984 13.356 167.242C14.7693 166.465 16.3947 166.076 18.232 166.076C22.2953 166.076 25.175 167.648 26.871 170.793C27.825 169.344 29.097 168.196 30.687 167.348C32.3123 166.5 34.079 166.076 35.987 166.076C39.4143 166.076 42.0467 167.101 43.884 169.15C45.7213 171.199 46.64 174.203 46.64 178.16V193H39.856V178.796C39.856 176.535 39.4143 174.803 38.531 173.602C37.683 172.401 36.358 171.8 34.556 171.8C32.7187 171.8 31.2347 172.471 30.104 173.814C29.0087 175.157 28.461 177.029 28.461 179.432V193H21.677V178.796C21.677 176.535 21.2353 174.803 20.352 173.602C19.4687 172.401 18.1083 171.8 16.271 171.8C14.469 171.8 13.0027 172.471 11.872 173.814C10.7767 175.157 10.229 177.029 10.229 179.432V193H3.445ZM65.8537 193.636C63.2037 193.636 60.8541 193.071 58.8047 191.94C56.7554 190.809 55.1477 189.219 53.9817 187.17C52.8157 185.121 52.2327 182.753 52.2327 180.068C52.2327 177.347 52.7981 174.927 53.9287 172.807C55.0947 170.687 56.6847 169.044 58.6987 167.878C60.7481 166.677 63.1507 166.076 65.9067 166.076C68.4861 166.076 70.7651 166.641 72.7437 167.772C74.7224 168.903 76.2594 170.457 77.3547 172.436C78.4854 174.379 79.0507 176.552 79.0507 178.955C79.0507 179.344 79.0331 179.75 78.9977 180.174C78.9977 180.598 78.9801 181.04 78.9447 181.499H58.9637C59.1051 183.548 59.8117 185.156 61.0837 186.322C62.3911 187.488 63.9634 188.071 65.8007 188.071C67.1787 188.071 68.3271 187.771 69.2457 187.17C70.1997 186.534 70.9064 185.721 71.3657 184.732H78.2557C77.7611 186.393 76.9307 187.912 75.7647 189.29C74.6341 190.633 73.2207 191.693 71.5247 192.47C69.8641 193.247 67.9737 193.636 65.8537 193.636ZM65.9067 171.588C64.2461 171.588 62.7797 172.065 61.5077 173.019C60.2357 173.938 59.4231 175.351 59.0697 177.259H72.1607C72.0547 175.528 71.4187 174.15 70.2527 173.125C69.0867 172.1 67.6381 171.588 65.9067 171.588ZM84.7565 193V166.712H90.7985L91.4345 171.641C92.3885 169.945 93.6782 168.602 95.3035 167.613C96.9642 166.588 98.9075 166.076 101.134 166.076V173.231H99.2255C97.7415 173.231 96.4165 173.461 95.2505 173.92C94.0845 174.379 93.1659 175.174 92.4945 176.305C91.8585 177.436 91.5405 179.008 91.5405 181.022V193H84.7565ZM116.279 185.156C115.007 185.156 113.823 185.015 112.728 184.732L110.767 186.693C111.368 187.011 112.18 187.276 113.205 187.488C114.23 187.7 115.89 187.912 118.187 188.124C121.685 188.442 124.229 189.272 125.819 190.615C127.409 191.958 128.204 193.813 128.204 196.18C128.204 197.735 127.78 199.201 126.932 200.579C126.084 201.992 124.777 203.123 123.01 203.971C121.243 204.854 118.982 205.296 116.226 205.296C112.481 205.296 109.46 204.589 107.163 203.176C104.866 201.798 103.718 199.713 103.718 196.922C103.718 194.555 104.866 192.505 107.163 190.774C106.456 190.456 105.838 190.12 105.308 189.767C104.813 189.414 104.372 189.043 103.983 188.654V187.435L108.594 182.559C106.545 180.757 105.52 178.443 105.52 175.616C105.52 173.849 105.944 172.242 106.792 170.793C107.675 169.344 108.912 168.196 110.502 167.348C112.092 166.5 114.018 166.076 116.279 166.076C117.763 166.076 119.141 166.288 120.413 166.712H130.377V170.846L125.872 171.164C126.579 172.507 126.932 173.991 126.932 175.616C126.932 177.383 126.508 178.99 125.66 180.439C124.812 181.888 123.575 183.036 121.95 183.884C120.36 184.732 118.47 185.156 116.279 185.156ZM116.279 179.962C117.657 179.962 118.788 179.591 119.671 178.849C120.59 178.107 121.049 177.047 121.049 175.669C121.049 174.291 120.59 173.231 119.671 172.489C118.788 171.747 117.657 171.376 116.279 171.376C114.83 171.376 113.664 171.747 112.781 172.489C111.898 173.231 111.456 174.291 111.456 175.669C111.456 177.047 111.898 178.107 112.781 178.849C113.664 179.591 114.83 179.962 116.279 179.962ZM109.919 196.233C109.919 197.54 110.52 198.512 111.721 199.148C112.958 199.819 114.459 200.155 116.226 200.155C117.922 200.155 119.3 199.802 120.36 199.095C121.42 198.424 121.95 197.505 121.95 196.339C121.95 195.385 121.597 194.59 120.89 193.954C120.219 193.318 118.858 192.929 116.809 192.788C115.36 192.682 114.018 192.523 112.781 192.311C111.756 192.876 111.014 193.495 110.555 194.166C110.131 194.837 109.919 195.526 109.919 196.233ZM145.182 193.636C141.896 193.636 139.352 192.611 137.55 190.562C135.783 188.513 134.9 185.509 134.9 181.552V166.712H141.631V180.916C141.631 183.177 142.09 184.909 143.009 186.11C143.928 187.311 145.376 187.912 147.355 187.912C149.228 187.912 150.765 187.241 151.966 185.898C153.203 184.555 153.821 182.683 153.821 180.28V166.712H160.605V193H154.616L154.086 188.548C153.273 190.103 152.09 191.339 150.535 192.258C149.016 193.177 147.231 193.636 145.182 193.636ZM167.569 193V154.84H174.353V193H167.569ZM181.285 193V154.84H188.069V170.74C188.952 169.291 190.136 168.161 191.62 167.348C193.139 166.5 194.871 166.076 196.814 166.076C200.065 166.076 202.573 167.101 204.34 169.15C206.142 171.199 207.043 174.203 207.043 178.16V193H200.312V178.796C200.312 176.535 199.853 174.803 198.934 173.602C198.051 172.401 196.637 171.8 194.694 171.8C192.786 171.8 191.196 172.471 189.924 173.814C188.687 175.157 188.069 177.029 188.069 179.432V193H181.285ZM217.187 162.631C215.95 162.631 214.926 162.26 214.113 161.518C213.336 160.776 212.947 159.84 212.947 158.709C212.947 157.578 213.336 156.66 214.113 155.953C214.926 155.211 215.95 154.84 217.187 154.84C218.424 154.84 219.431 155.211 220.208 155.953C221.021 156.66 221.427 157.578 221.427 158.709C221.427 159.84 221.021 160.776 220.208 161.518C219.431 162.26 218.424 162.631 217.187 162.631ZM213.795 193V166.712H220.579V193H213.795ZM227.66 193V166.712H233.649L234.179 171.164C234.992 169.609 236.158 168.373 237.677 167.454C239.232 166.535 241.051 166.076 243.136 166.076C246.387 166.076 248.913 167.101 250.715 169.15C252.517 171.199 253.418 174.203 253.418 178.16V193H246.634V178.796C246.634 176.535 246.175 174.803 245.256 173.602C244.337 172.401 242.906 171.8 240.963 171.8C239.055 171.8 237.483 172.471 236.246 173.814C235.045 175.157 234.444 177.029 234.444 179.432V193H227.66ZM259.905 193V154.84H266.689V170.74C267.572 169.291 268.756 168.161 270.24 167.348C271.759 166.5 273.491 166.076 275.434 166.076C278.685 166.076 281.193 167.101 282.96 169.15C284.762 171.199 285.663 174.203 285.663 178.16V193H278.932V178.796C278.932 176.535 278.473 174.803 277.554 173.602C276.671 172.401 275.257 171.8 273.314 171.8C271.406 171.8 269.816 172.471 268.544 173.814C267.307 175.157 266.689 177.029 266.689 179.432V193H259.905ZM304.764 193.636C302.22 193.636 299.923 193.053 297.874 191.887C295.86 190.721 294.252 189.113 293.051 187.064C291.885 184.979 291.302 182.577 291.302 179.856C291.302 177.135 291.903 174.75 293.104 172.701C294.305 170.616 295.913 168.991 297.927 167.825C299.976 166.659 302.273 166.076 304.817 166.076C307.326 166.076 309.587 166.659 311.601 167.825C313.65 168.991 315.258 170.616 316.424 172.701C317.625 174.75 318.226 177.135 318.226 179.856C318.226 182.577 317.625 184.979 316.424 187.064C315.258 189.113 313.65 190.721 311.601 191.887C309.552 193.053 307.273 193.636 304.764 193.636ZM304.764 187.753C306.531 187.753 308.068 187.099 309.375 185.792C310.682 184.449 311.336 182.471 311.336 179.856C311.336 177.241 310.682 175.28 309.375 173.973C308.068 172.63 306.548 171.959 304.817 171.959C303.015 171.959 301.46 172.63 300.153 173.973C298.881 175.28 298.245 177.241 298.245 179.856C298.245 182.471 298.881 184.449 300.153 185.792C301.46 187.099 302.997 187.753 304.764 187.753ZM326.503 181.446L326.291 172.701H328.729C330.531 172.701 332.174 172.542 333.658 172.224C335.142 171.906 336.326 171.288 337.209 170.369C338.093 169.45 338.534 168.108 338.534 166.341C338.534 164.645 338.022 163.32 336.997 162.366C335.973 161.377 334.612 160.882 332.916 160.882C331.15 160.882 329.772 161.377 328.782 162.366C327.793 163.32 327.298 164.627 327.298 166.288H320.885C320.85 164.168 321.309 162.278 322.263 160.617C323.217 158.956 324.595 157.649 326.397 156.695C328.235 155.741 330.425 155.264 332.969 155.264C335.337 155.264 337.421 155.706 339.223 156.589C341.061 157.472 342.492 158.744 343.516 160.405C344.576 162.03 345.106 164.027 345.106 166.394C345.106 168.832 344.559 170.846 343.463 172.436C342.403 174.026 340.937 175.21 339.064 175.987C337.227 176.764 335.089 177.171 332.651 177.206L332.492 181.446H326.503ZM329.524 193.371C328.288 193.371 327.263 192.982 326.45 192.205C325.673 191.428 325.284 190.491 325.284 189.396C325.284 188.265 325.673 187.311 326.45 186.534C327.263 185.757 328.288 185.368 329.524 185.368C330.761 185.368 331.768 185.757 332.545 186.534C333.323 187.311 333.711 188.265 333.711 189.396C333.711 190.491 333.323 191.428 332.545 192.205C331.768 192.982 330.761 193.371 329.524 193.371Z" fill="#1D1D1D"/>
    <path d="M261.794 245.045C260.954 245.045 260.204 244.841 259.544 244.433C258.884 244.025 258.362 243.467 257.978 242.759C257.594 242.051 257.402 241.247 257.402 240.347C257.402 239.447 257.594 238.649 257.978 237.953C258.362 237.245 258.884 236.693 259.544 236.297C260.204 235.889 260.954 235.685 261.794 235.685C262.466 235.685 263.054 235.811 263.558 236.063C264.062 236.315 264.47 236.669 264.782 237.125V231.869H267.086V244.829H265.034L264.782 243.551C264.494 243.947 264.11 244.295 263.63 244.595C263.162 244.895 262.55 245.045 261.794 245.045ZM262.28 243.029C263.024 243.029 263.63 242.783 264.098 242.291C264.578 241.787 264.818 241.145 264.818 240.365C264.818 239.585 264.578 238.949 264.098 238.457C263.63 237.953 263.024 237.701 262.28 237.701C261.548 237.701 260.942 237.947 260.462 238.439C259.982 238.931 259.742 239.567 259.742 240.347C259.742 241.127 259.982 241.769 260.462 242.273C260.942 242.777 261.548 243.029 262.28 243.029ZM270.674 234.515C270.254 234.515 269.906 234.389 269.63 234.137C269.366 233.885 269.234 233.567 269.234 233.183C269.234 232.799 269.366 232.487 269.63 232.247C269.906 231.995 270.254 231.869 270.674 231.869C271.094 231.869 271.436 231.995 271.7 232.247C271.976 232.487 272.114 232.799 272.114 233.183C272.114 233.567 271.976 233.885 271.7 234.137C271.436 234.389 271.094 234.515 270.674 234.515ZM269.522 244.829V235.901H271.826V244.829H269.522ZM278.011 242.165C277.579 242.165 277.177 242.117 276.805 242.021L276.139 242.687C276.343 242.795 276.619 242.885 276.967 242.957C277.315 243.029 277.879 243.101 278.659 243.173C279.847 243.281 280.711 243.563 281.251 244.019C281.791 244.475 282.061 245.105 282.061 245.909C282.061 246.437 281.917 246.935 281.629 247.403C281.341 247.883 280.897 248.267 280.297 248.555C279.697 248.855 278.929 249.005 277.993 249.005C276.721 249.005 275.695 248.765 274.915 248.285C274.135 247.817 273.745 247.109 273.745 246.161C273.745 245.357 274.135 244.661 274.915 244.073C274.675 243.965 274.465 243.851 274.285 243.731C274.117 243.611 273.967 243.485 273.835 243.353V242.939L275.401 241.283C274.705 240.671 274.357 239.885 274.357 238.925C274.357 238.325 274.501 237.779 274.789 237.287C275.089 236.795 275.509 236.405 276.049 236.117C276.589 235.829 277.243 235.685 278.011 235.685C278.515 235.685 278.983 235.757 279.415 235.901H282.799V237.305L281.269 237.413C281.509 237.869 281.629 238.373 281.629 238.925C281.629 239.525 281.485 240.071 281.197 240.563C280.909 241.055 280.489 241.445 279.937 241.733C279.397 242.021 278.755 242.165 278.011 242.165ZM278.011 240.401C278.479 240.401 278.863 240.275 279.163 240.023C279.475 239.771 279.631 239.411 279.631 238.943C279.631 238.475 279.475 238.115 279.163 237.863C278.863 237.611 278.479 237.485 278.011 237.485C277.519 237.485 277.123 237.611 276.823 237.863C276.523 238.115 276.373 238.475 276.373 238.943C276.373 239.411 276.523 239.771 276.823 240.023C277.123 240.275 277.519 240.401 278.011 240.401ZM275.851 245.927C275.851 246.371 276.055 246.701 276.463 246.917C276.883 247.145 277.393 247.259 277.993 247.259C278.569 247.259 279.037 247.139 279.397 246.899C279.757 246.671 279.937 246.359 279.937 245.963C279.937 245.639 279.817 245.369 279.577 245.153C279.349 244.937 278.887 244.805 278.191 244.757C277.699 244.721 277.243 244.667 276.823 244.595C276.475 244.787 276.223 244.997 276.067 245.225C275.923 245.453 275.851 245.687 275.851 245.927ZM288.411 245.045C287.547 245.045 286.767 244.847 286.071 244.451C285.387 244.055 284.841 243.509 284.433 242.813C284.037 242.105 283.839 241.289 283.839 240.365C283.839 239.441 284.043 238.631 284.451 237.935C284.859 237.227 285.405 236.675 286.089 236.279C286.785 235.883 287.565 235.685 288.429 235.685C289.281 235.685 290.049 235.883 290.733 236.279C291.429 236.675 291.975 237.227 292.371 237.935C292.779 238.631 292.983 239.441 292.983 240.365C292.983 241.289 292.779 242.105 292.371 242.813C291.975 243.509 291.429 244.055 290.733 244.451C290.037 244.847 289.263 245.045 288.411 245.045ZM288.411 243.047C289.011 243.047 289.533 242.825 289.977 242.381C290.421 241.925 290.643 241.253 290.643 240.365C290.643 239.477 290.421 238.811 289.977 238.367C289.533 237.911 289.017 237.683 288.429 237.683C287.817 237.683 287.289 237.911 286.845 238.367C286.413 238.811 286.197 239.477 286.197 240.365C286.197 241.253 286.413 241.925 286.845 242.381C287.289 242.825 287.811 243.047 288.411 243.047ZM294.845 240.581V238.655H302.387V240.581H294.845ZM308.513 244.829C307.577 244.829 306.827 244.601 306.263 244.145C305.699 243.689 305.417 242.879 305.417 241.715V237.827H303.887V235.901H305.417L305.687 233.507H307.721V235.901H310.133V237.827H307.721V241.733C307.721 242.165 307.811 242.465 307.991 242.633C308.183 242.789 308.507 242.867 308.963 242.867H310.079V244.829H308.513ZM316.221 245.045C315.321 245.045 314.523 244.853 313.827 244.469C313.131 244.085 312.585 243.545 312.189 242.849C311.793 242.153 311.595 241.349 311.595 240.437C311.595 239.513 311.787 238.691 312.171 237.971C312.567 237.251 313.107 236.693 313.791 236.297C314.487 235.889 315.303 235.685 316.239 235.685C317.115 235.685 317.889 235.877 318.561 236.261C319.233 236.645 319.755 237.173 320.127 237.845C320.511 238.505 320.703 239.243 320.703 240.059C320.703 240.191 320.697 240.329 320.685 240.473C320.685 240.617 320.679 240.767 320.667 240.923H313.881C313.929 241.619 314.169 242.165 314.601 242.561C315.045 242.957 315.579 243.155 316.203 243.155C316.671 243.155 317.061 243.053 317.373 242.849C317.697 242.633 317.937 242.357 318.093 242.021H320.433C320.265 242.585 319.983 243.101 319.587 243.569C319.203 244.025 318.723 244.385 318.147 244.649C317.583 244.913 316.941 245.045 316.221 245.045ZM316.239 237.557C315.675 237.557 315.177 237.719 314.745 238.043C314.313 238.355 314.037 238.835 313.917 239.483H318.363C318.327 238.895 318.111 238.427 317.715 238.079C317.319 237.731 316.827 237.557 316.239 237.557ZM328.208 234.515C327.788 234.515 327.44 234.389 327.164 234.137C326.9 233.885 326.768 233.567 326.768 233.183C326.768 232.799 326.9 232.487 327.164 232.247C327.44 231.995 327.788 231.869 328.208 231.869C328.628 231.869 328.97 231.995 329.234 232.247C329.51 232.487 329.648 232.799 329.648 233.183C329.648 233.567 329.51 233.885 329.234 234.137C328.97 234.389 328.628 234.515 328.208 234.515ZM325.238 248.789V246.827H325.94C326.336 246.827 326.618 246.749 326.786 246.593C326.954 246.437 327.038 246.173 327.038 245.801V235.901H329.342V245.801C329.342 246.881 329.066 247.649 328.514 248.105C327.974 248.561 327.236 248.789 326.3 248.789H325.238ZM334.824 245.045C334.056 245.045 333.426 244.925 332.934 244.685C332.442 244.433 332.076 244.103 331.836 243.695C331.596 243.287 331.476 242.837 331.476 242.345C331.476 241.517 331.8 240.845 332.448 240.329C333.096 239.813 334.068 239.555 335.364 239.555H337.632V239.339C337.632 238.727 337.458 238.277 337.11 237.989C336.762 237.701 336.33 237.557 335.814 237.557C335.346 237.557 334.938 237.671 334.59 237.899C334.242 238.115 334.026 238.439 333.942 238.871H331.692C331.752 238.223 331.968 237.659 332.34 237.179C332.724 236.699 333.216 236.333 333.816 236.081C334.416 235.817 335.088 235.685 335.832 235.685C337.104 235.685 338.106 236.003 338.838 236.639C339.57 237.275 339.936 238.175 339.936 239.339V244.829H337.974L337.758 243.389C337.494 243.869 337.122 244.265 336.642 244.577C336.174 244.889 335.568 245.045 334.824 245.045ZM335.346 243.245C336.006 243.245 336.516 243.029 336.876 242.597C337.248 242.165 337.482 241.631 337.578 240.995H335.616C335.004 240.995 334.566 241.109 334.302 241.337C334.038 241.553 333.906 241.823 333.906 242.147C333.906 242.495 334.038 242.765 334.302 242.957C334.566 243.149 334.914 243.245 335.346 243.245ZM335.184 235.181V233.561L339.252 231.365V233.237L335.184 235.181ZM342.621 240.851L342.369 232.229H344.835L344.565 240.851H342.621ZM343.647 244.955C343.215 244.955 342.861 244.823 342.585 244.559C342.321 244.295 342.189 243.977 342.189 243.605C342.189 243.221 342.321 242.897 342.585 242.633C342.861 242.369 343.215 242.237 343.647 242.237C344.055 242.237 344.391 242.369 344.655 242.633C344.931 242.897 345.069 243.221 345.069 243.605C345.069 243.977 344.931 244.295 344.655 244.559C344.391 244.823 344.055 244.955 343.647 244.955Z" fill="#1D1D1D"/>
    <g style="mix-blend-mode:multiply">
    <path d="M249 222V229.035V236.071" stroke="#F15A24" stroke-width="1.40123" stroke-miterlimit="10"/>
    </g>
    <g style="mix-blend-mode:multiply">
    <path d="M243 225.517L249.001 229.035L248.876 229.109L243 232.552" stroke="#F15A24" stroke-width="1.40123" stroke-miterlimit="10"/>
    </g>
    <g style="mix-blend-mode:multiply">
    <path d="M255 232.552L249 229.035L255 225.517" stroke="#F15A24" stroke-width="1.40123" stroke-miterlimit="10"/>
    </g>
    <g style="mix-blend-mode:multiply">
    <path d="M277.545 0V73.228V146.456" stroke="#F15A24" stroke-width="14.5849" stroke-miterlimit="10"/>
    </g>
    <g style="mix-blend-mode:multiply">
    <path d="M215.088 36.6162L277.546 73.2262L276.252 73.9963L215.088 109.842" stroke="#F15A24" stroke-width="14.5849" stroke-miterlimit="10"/>
    </g>
    <g style="mix-blend-mode:multiply">
    <path d="M339.998 109.842L277.545 73.2262L339.998 36.6162" stroke="#F15A24" stroke-width="14.5849" stroke-miterlimit="10"/>
    </g>
    </svg>
    