<svg width="1212" height="119" viewBox="0 0 1212 119" fill="none" xmlns="http://www.w3.org/2000/svg">
    <line x1="3.20685" y1="104.388" x2="84.6389" y2="85.475" stroke="#7844E3" stroke-opacity="0.7" stroke-width="24.6923"/>
    <line x1="303.207" y1="104.388" x2="384.639" y2="85.475" stroke="#7844E3" stroke-opacity="0.7" stroke-width="24.6923"/>
    <line x1="78.1417" y1="86.4837" x2="159.572" y2="105.403" stroke="#7844E3" stroke-opacity="0.7" stroke-width="24.6923"/>
    <line x1="378.142" y1="85.4754" x2="459.572" y2="104.395" stroke="#7844E3" stroke-opacity="0.7" stroke-width="24.6923"/>
    <line x1="151.887" y1="104.388" x2="233.319" y2="85.475" stroke="#7844E3" stroke-opacity="0.7" stroke-width="24.6923"/>
    <line x1="451.887" y1="104.388" x2="533.319" y2="85.475" stroke="#7844E3" stroke-opacity="0.7" stroke-width="24.6923"/>
    <line x1="227.347" y1="85.4751" x2="308.777" y2="104.395" stroke="#7844E3" stroke-opacity="0.7" stroke-width="24.6923"/>
    <line x1="527.347" y1="85.4754" x2="608.777" y2="104.395" stroke="#7844E3" stroke-opacity="0.7" stroke-width="24.6923"/>
    <line x1="3.20685" y1="68.6632" x2="84.6389" y2="49.7499" stroke="#7844E3" stroke-opacity="0.7" stroke-width="24.6923"/>
    <line x1="303.207" y1="68.6632" x2="384.639" y2="49.7499" stroke="#7844E3" stroke-opacity="0.7" stroke-width="24.6923"/>
    <line x1="78.1417" y1="49.7503" x2="159.572" y2="68.6698" stroke="#7844E3" stroke-opacity="0.7" stroke-width="24.6923"/>
    <line x1="378.142" y1="49.7503" x2="459.572" y2="68.6698" stroke="#7844E3" stroke-opacity="0.7" stroke-width="24.6923"/>
    <line x1="151.887" y1="68.6632" x2="233.319" y2="49.7499" stroke="#7844E3" stroke-opacity="0.7" stroke-width="24.6923"/>
    <line x1="451.887" y1="68.6632" x2="533.319" y2="49.7499" stroke="#7844E3" stroke-opacity="0.7" stroke-width="24.6923"/>
    <line x1="227.347" y1="49.7503" x2="308.777" y2="68.6698" stroke="#7844E3" stroke-opacity="0.7" stroke-width="24.6923"/>
    <line x1="527.347" y1="49.7503" x2="608.777" y2="68.6698" stroke="#7844E3" stroke-opacity="0.7" stroke-width="24.6923"/>
    <line x1="3.20685" y1="31.887" x2="84.6389" y2="12.9738" stroke="#7844E3" stroke-opacity="0.7" stroke-width="24.6923"/>
    <line x1="303.207" y1="31.887" x2="384.639" y2="12.9738" stroke="#7844E3" stroke-opacity="0.7" stroke-width="24.6923"/>
    <line x1="78.1417" y1="12.9744" x2="159.572" y2="31.8939" stroke="#7844E3" stroke-opacity="0.7" stroke-width="24.6923"/>
    <line x1="378.142" y1="12.9744" x2="459.572" y2="31.8939" stroke="#7844E3" stroke-opacity="0.7" stroke-width="24.6923"/>
    <line x1="151.887" y1="31.887" x2="233.319" y2="12.9738" stroke="#7844E3" stroke-opacity="0.7" stroke-width="24.6923"/>
    <line x1="451.887" y1="31.887" x2="533.319" y2="12.9738" stroke="#7844E3" stroke-opacity="0.7" stroke-width="24.6923"/>
    <line x1="227.347" y1="12.9744" x2="308.777" y2="31.8939" stroke="#7844E3" stroke-opacity="0.7" stroke-width="24.6923"/>
    <line x1="527.347" y1="12.9744" x2="608.777" y2="31.8939" stroke="#7844E3" stroke-opacity="0.7" stroke-width="24.6923"/>
    <line x1="603.207" y1="105.388" x2="684.639" y2="86.475" stroke="#7844E3" stroke-opacity="0.7" stroke-width="24.6923"/>
    <line x1="903.207" y1="105.388" x2="984.639" y2="86.475" stroke="#7844E3" stroke-opacity="0.7" stroke-width="24.6923"/>
    <line x1="678.142" y1="87.4837" x2="759.572" y2="106.403" stroke="#7844E3" stroke-opacity="0.7" stroke-width="24.6923"/>
    <line x1="978.142" y1="86.4754" x2="1059.57" y2="105.395" stroke="#7844E3" stroke-opacity="0.7" stroke-width="24.6923"/>
    <line x1="751.887" y1="105.388" x2="833.319" y2="86.475" stroke="#7844E3" stroke-opacity="0.7" stroke-width="24.6923"/>
    <line x1="1051.89" y1="105.388" x2="1133.32" y2="86.475" stroke="#7844E3" stroke-opacity="0.7" stroke-width="24.6923"/>
    <line x1="827.347" y1="86.4751" x2="908.777" y2="105.395" stroke="#7844E3" stroke-opacity="0.7" stroke-width="24.6923"/>
    <line x1="1127.35" y1="86.4754" x2="1208.78" y2="105.395" stroke="#7844E3" stroke-opacity="0.7" stroke-width="24.6923"/>
    <line x1="603.207" y1="69.6632" x2="684.639" y2="50.7499" stroke="#7844E3" stroke-opacity="0.7" stroke-width="24.6923"/>
    <line x1="903.207" y1="69.6632" x2="984.639" y2="50.7499" stroke="#7844E3" stroke-opacity="0.7" stroke-width="24.6923"/>
    <line x1="678.142" y1="50.7503" x2="759.572" y2="69.6698" stroke="#7844E3" stroke-opacity="0.7" stroke-width="24.6923"/>
    <line x1="978.142" y1="50.7503" x2="1059.57" y2="69.6698" stroke="#7844E3" stroke-opacity="0.7" stroke-width="24.6923"/>
    <line x1="751.887" y1="69.6632" x2="833.319" y2="50.7499" stroke="#7844E3" stroke-opacity="0.7" stroke-width="24.6923"/>
    <line x1="1051.89" y1="69.6632" x2="1133.32" y2="50.7499" stroke="#7844E3" stroke-opacity="0.7" stroke-width="24.6923"/>
    <line x1="827.347" y1="50.7503" x2="908.777" y2="69.6698" stroke="#7844E3" stroke-opacity="0.7" stroke-width="24.6923"/>
    <line x1="1127.35" y1="50.7503" x2="1208.78" y2="69.6698" stroke="#7844E3" stroke-opacity="0.7" stroke-width="24.6923"/>
    <line x1="603.207" y1="32.887" x2="684.639" y2="13.9738" stroke="#7844E3" stroke-opacity="0.7" stroke-width="24.6923"/>
    <line x1="903.207" y1="32.887" x2="984.639" y2="13.9738" stroke="#7844E3" stroke-opacity="0.7" stroke-width="24.6923"/>
    <line x1="678.142" y1="13.9744" x2="759.572" y2="32.8939" stroke="#7844E3" stroke-opacity="0.7" stroke-width="24.6923"/>
    <line x1="978.142" y1="13.9744" x2="1059.57" y2="32.8939" stroke="#7844E3" stroke-opacity="0.7" stroke-width="24.6923"/>
    <line x1="751.887" y1="32.887" x2="833.319" y2="13.9738" stroke="#7844E3" stroke-opacity="0.7" stroke-width="24.6923"/>
    <line x1="1051.89" y1="32.887" x2="1133.32" y2="13.9738" stroke="#7844E3" stroke-opacity="0.7" stroke-width="24.6923"/>
    <line x1="827.347" y1="13.9744" x2="908.777" y2="32.8939" stroke="#7844E3" stroke-opacity="0.7" stroke-width="24.6923"/>
    <line x1="1127.35" y1="13.9744" x2="1208.78" y2="32.8939" stroke="#7844E3" stroke-opacity="0.7" stroke-width="24.6923"/>
    </svg>
    