<svg width="567" height="161" viewBox="0 0 567 161" fill="none" xmlns="http://www.w3.org/2000/svg">
<rect width="567" height="161"/>
<line x1="-19.7931" y1="128.388" x2="61.6389" y2="109.475" stroke="#7844E3" stroke-opacity="0.7" stroke-width="24.6923"/>
<line x1="280.207" y1="128.388" x2="361.639" y2="109.475" stroke="#7844E3" stroke-opacity="0.7" stroke-width="24.6923"/>
<line x1="54.7941" y1="108.974" x2="136.225" y2="127.894" stroke="#7844E3" stroke-opacity="0.7" stroke-width="24.6923"/>
<line x1="355.142" y1="109.475" x2="436.572" y2="128.395" stroke="#7844E3" stroke-opacity="0.7" stroke-width="24.6923"/>
<line x1="128.887" y1="128.388" x2="210.319" y2="109.475" stroke="#7844E3" stroke-opacity="0.7" stroke-width="24.6923"/>
<line x1="428.887" y1="128.388" x2="510.319" y2="109.475" stroke="#7844E3" stroke-opacity="0.7" stroke-width="24.6923"/>
<line x1="204.347" y1="109.475" x2="285.777" y2="128.395" stroke="#7844E3" stroke-opacity="0.7" stroke-width="24.6923"/>
<line x1="504.347" y1="109.475" x2="585.777" y2="128.395" stroke="#7844E3" stroke-opacity="0.7" stroke-width="24.6923"/>
<line x1="-19.7931" y1="92.6632" x2="61.6389" y2="73.7499" stroke="#7844E3" stroke-opacity="0.7" stroke-width="24.6923"/>
<line x1="280.207" y1="92.6632" x2="361.639" y2="73.7499" stroke="#7844E3" stroke-opacity="0.7" stroke-width="24.6923"/>
<line x1="55.1417" y1="73.7503" x2="136.572" y2="92.6698" stroke="#7844E3" stroke-opacity="0.7" stroke-width="24.6923"/>
<line x1="355.142" y1="73.7503" x2="436.572" y2="92.6698" stroke="#7844E3" stroke-opacity="0.7" stroke-width="24.6923"/>
<line x1="128.887" y1="92.6632" x2="210.319" y2="73.7499" stroke="#7844E3" stroke-opacity="0.7" stroke-width="24.6923"/>
<line x1="428.887" y1="92.6632" x2="510.319" y2="73.7499" stroke="#7844E3" stroke-opacity="0.7" stroke-width="24.6923"/>
<line x1="204.347" y1="73.7503" x2="285.777" y2="92.6698" stroke="#7844E3" stroke-opacity="0.7" stroke-width="24.6923"/>
<line x1="504.347" y1="73.7503" x2="585.777" y2="92.6698" stroke="#7844E3" stroke-opacity="0.7" stroke-width="24.6923"/>
<line x1="-19.7931" y1="55.887" x2="61.6389" y2="36.9738" stroke="#7844E3" stroke-opacity="0.7" stroke-width="24.6923"/>
<line x1="280.207" y1="55.887" x2="361.639" y2="36.9738" stroke="#7844E3" stroke-opacity="0.7" stroke-width="24.6923"/>
<line x1="55.1417" y1="36.9744" x2="136.572" y2="55.8939" stroke="#7844E3" stroke-opacity="0.7" stroke-width="24.6923"/>
<line x1="355.142" y1="36.9744" x2="436.572" y2="55.8939" stroke="#7844E3" stroke-opacity="0.7" stroke-width="24.6923"/>
<line x1="128.887" y1="55.887" x2="210.319" y2="36.9738" stroke="#7844E3" stroke-opacity="0.7" stroke-width="24.6923"/>
<line x1="428.887" y1="55.887" x2="510.319" y2="36.9738" stroke="#7844E3" stroke-opacity="0.7" stroke-width="24.6923"/>
<line x1="204.347" y1="36.9744" x2="285.777" y2="55.8939" stroke="#7844E3" stroke-opacity="0.7" stroke-width="24.6923"/>
<line x1="504.347" y1="36.9744" x2="585.777" y2="55.8939" stroke="#7844E3" stroke-opacity="0.7" stroke-width="24.6923"/>
</svg>
