<svg width="438" height="266" viewBox="0 0 438 266" fill="none" xmlns="http://www.w3.org/2000/svg">
    <path opacity="0.7" d="M192.999 239.615L192.078 240.146V246.102H193.921V240.146L192.999 239.615H192.999ZM193.921 231H192.078V236.956L192.999 237.487L193.921 236.956V231Z" fill="white" />
    <path opacity="0.7" d="M186.921 233.978L186 235.573L191.158 238.551L186 241.529L186.921 243.124L192.079 240.146V239.083L191.158 238.551L192.079 238.019V236.956L186.921 233.978Z" fill="white" />
    <path opacity="0.91" d="M192.078 239.083V240.147L192.999 239.615L192.078 239.083ZM192.078 236.956V238.02L192.999 237.488L192.078 236.956" fill="white" />
    <path opacity="0.7" d="M199.078 233.978L193.92 236.956V238.019L194.856 238.56L193.92 239.089V240.146L199.078 243.124L199.999 241.529H199.999L194.841 238.551L199.999 235.573L199.078 233.978Z" fill="white" />
    <path opacity="0.91" d="M193.921 239.089L193.457 239.351L193 239.615L193.921 240.146V239.089ZM193.921 236.956L193 237.487L193.921 238.019V236.956" fill="white" />
    <path opacity="0.91" d="M192.081 238.019L191.16 238.551L192.081 239.083V238.019ZM193.923 238.019V239.088L194.86 238.559L193.924 238.019" fill="white" />
    <path opacity="0.97" d="M192.999 237.487L192.078 238.019V239.083L192.999 239.614L193.457 239.35L193.92 239.089V238.019L192.999 237.487Z" fill="white" />
    <path d="M2.8 70V-4.76837e-06H15.6L48.5 49.3V-4.76837e-06H61.3V70H48.5L15.6 20.8V70H2.8ZM91.6703 71.2C87.4036 71.2 83.9036 70.5333 81.1703 69.2C78.437 67.8 76.4036 65.9667 75.0703 63.7C73.737 61.4333 73.0703 58.9333 73.0703 56.2C73.0703 51.6 74.8703 47.8667 78.4703 45C82.0703 42.1333 87.4703 40.7 94.6703 40.7H107.27V39.5C107.27 36.1 106.304 33.6 104.37 32C102.437 30.4 100.037 29.6 97.1703 29.6C94.5703 29.6 92.3036 30.2333 90.3703 31.5C88.437 32.7 87.237 34.5 86.7703 36.9H74.2703C74.6036 33.3 75.8036 30.1667 77.8703 27.5C80.0036 24.8333 82.737 22.8 86.0703 21.4C89.4036 19.9333 93.137 19.2 97.2703 19.2C104.337 19.2 109.904 20.9667 113.97 24.5C118.037 28.0333 120.07 33.0333 120.07 39.5V70H109.17L107.97 62C106.504 64.6667 104.437 66.8667 101.77 68.6C99.1703 70.3333 95.8036 71.2 91.6703 71.2ZM94.5703 61.2C98.237 61.2 101.07 60 103.07 57.6C105.137 55.2 106.437 52.2333 106.97 48.7H96.0703C92.6703 48.7 90.237 49.3333 88.7703 50.6C87.3036 51.8 86.5703 53.3 86.5703 55.1C86.5703 57.0333 87.3036 58.5333 88.7703 59.6C90.237 60.6667 92.1703 61.2 94.5703 61.2ZM102.87 15.2C101.004 15.2 99.4036 14.8333 98.0703 14.1C96.737 13.3 95.5036 12.5333 94.3703 11.8C93.237 11 92.0036 10.6 90.6703 10.6C88.2036 10.6 86.737 12.1 86.2703 15.1H79.4703C80.137 10.8333 81.4703 7.7 83.4703 5.7C85.537 3.7 88.1036 2.7 91.1703 2.7C93.037 2.7 94.637 3.1 95.9703 3.9C97.3036 4.63333 98.537 5.4 99.6703 6.2C100.804 6.93333 102.07 7.3 103.47 7.3C104.604 7.3 105.537 6.93333 106.27 6.2C107.07 5.46666 107.57 4.33333 107.77 2.79999H114.67C114.004 7.06666 112.637 10.2 110.57 12.2C108.504 14.2 105.937 15.2 102.87 15.2ZM156.085 71.2C151.285 71.2 146.952 70.1 143.085 67.9C139.285 65.7 136.252 62.6667 133.985 58.8C131.785 54.8667 130.685 50.3333 130.685 45.2C130.685 40.0667 131.818 35.5667 134.085 31.7C136.352 27.7667 139.385 24.7 143.185 22.5C147.052 20.3 151.385 19.2 156.185 19.2C160.918 19.2 165.185 20.3 168.985 22.5C172.852 24.7 175.885 27.7667 178.085 31.7C180.352 35.5667 181.485 40.0667 181.485 45.2C181.485 50.3333 180.352 54.8667 178.085 58.8C175.885 62.6667 172.852 65.7 168.985 67.9C165.118 70.1 160.818 71.2 156.085 71.2ZM156.085 60.1C159.418 60.1 162.318 58.8667 164.785 56.4C167.252 53.8667 168.485 50.1333 168.485 45.2C168.485 40.2667 167.252 36.5667 164.785 34.1C162.318 31.5667 159.452 30.3 156.185 30.3C152.785 30.3 149.852 31.5667 147.385 34.1C144.985 36.5667 143.785 40.2667 143.785 45.2C143.785 50.1333 144.985 53.8667 147.385 56.4C149.852 58.8667 152.752 60.1 156.085 60.1ZM238.858 70C233.658 70 229.491 68.7333 226.358 66.2C223.224 63.6667 221.658 59.1667 221.658 52.7V31.1H213.158V20.4H221.658L223.158 7.1H234.458V20.4H247.858V31.1H234.458V52.8C234.458 55.2 234.958 56.8667 235.958 57.8C237.024 58.6667 238.824 59.1 241.358 59.1H247.558V70H238.858ZM281.678 71.2C276.678 71.2 272.245 70.1333 268.378 68C264.511 65.8667 261.478 62.8667 259.278 59C257.078 55.1333 255.978 50.6667 255.978 45.6C255.978 40.4667 257.045 35.9 259.178 31.9C261.378 27.9 264.378 24.8 268.178 22.6C272.045 20.3333 276.578 19.2 281.778 19.2C286.645 19.2 290.945 20.2667 294.678 22.4C298.411 24.5333 301.311 27.4667 303.378 31.2C305.511 34.8667 306.578 38.9667 306.578 43.5C306.578 44.2333 306.545 45 306.478 45.8C306.478 46.6 306.445 47.4333 306.378 48.3H268.678C268.945 52.1667 270.278 55.2 272.678 57.4C275.145 59.6 278.111 60.7 281.578 60.7C284.178 60.7 286.345 60.1333 288.078 59C289.878 57.8 291.211 56.2667 292.078 54.4H305.078C304.145 57.5333 302.578 60.4 300.378 63C298.245 65.5333 295.578 67.5333 292.378 69C289.245 70.4667 285.678 71.2 281.678 71.2ZM281.778 29.6C278.645 29.6 275.878 30.5 273.478 32.3C271.078 34.0333 269.545 36.7 268.878 40.3H293.578C293.378 37.0333 292.178 34.4333 289.978 32.5C287.778 30.5667 285.045 29.6 281.778 29.6ZM41.9 202V172.9C40.3 175.1 38.1667 177.033 35.5 178.7C32.9 180.367 29.5 181.2 25.3 181.2C20.6333 181.2 16.4667 180.067 12.8 177.8C9.13333 175.533 6.23333 172.433 4.1 168.5C1.96667 164.567 0.9 160.1 0.9 155.1C0.9 150.1 1.96667 145.667 4.1 141.8C6.23333 137.867 9.13333 134.8 12.8 132.6C16.4667 130.333 20.6333 129.2 25.3 129.2C29.0333 129.2 32.3 129.9 35.1 131.3C37.9 132.7 40.1667 134.667 41.9 137.2L43.3 130.4H54.7V202H41.9ZM28 170C32.1333 170 35.5 168.633 38.1 165.9C40.7667 163.1 42.1 159.533 42.1 155.2C42.1 150.867 40.7667 147.333 38.1 144.6C35.5 141.8 32.1333 140.4 28 140.4C23.9333 140.4 20.5667 141.767 17.9 144.5C15.2333 147.233 13.9 150.767 13.9 155.1C13.9 159.433 15.2333 163 17.9 165.8C20.5667 168.6 23.9333 170 28 170ZM86.3344 181.2C80.1344 181.2 75.3344 179.267 71.9344 175.4C68.601 171.533 66.9344 165.867 66.9344 158.4V130.4H79.6344V157.2C79.6344 161.467 80.501 164.733 82.2344 167C83.9677 169.267 86.701 170.4 90.4344 170.4C93.9677 170.4 96.8677 169.133 99.1344 166.6C101.468 164.067 102.634 160.533 102.634 156V130.4H115.434V180H104.134L103.134 171.6C101.601 174.533 99.3677 176.867 96.4344 178.6C93.5677 180.333 90.201 181.2 86.3344 181.2ZM152.674 181.2C147.674 181.2 143.241 180.133 139.374 178C135.508 175.867 132.474 172.867 130.274 169C128.074 165.133 126.974 160.667 126.974 155.6C126.974 150.467 128.041 145.9 130.174 141.9C132.374 137.9 135.374 134.8 139.174 132.6C143.041 130.333 147.574 129.2 152.774 129.2C157.641 129.2 161.941 130.267 165.674 132.4C169.408 134.533 172.308 137.467 174.374 141.2C176.508 144.867 177.574 148.967 177.574 153.5C177.574 154.233 177.541 155 177.474 155.8C177.474 156.6 177.441 157.433 177.374 158.3H139.674C139.941 162.167 141.274 165.2 143.674 167.4C146.141 169.6 149.108 170.7 152.574 170.7C155.174 170.7 157.341 170.133 159.074 169C160.874 167.8 162.208 166.267 163.074 164.4H176.074C175.141 167.533 173.574 170.4 171.374 173C169.241 175.533 166.574 177.533 163.374 179C160.241 180.467 156.674 181.2 152.674 181.2ZM152.774 139.6C149.641 139.6 146.874 140.5 144.474 142.3C142.074 144.033 140.541 146.7 139.874 150.3H164.574C164.374 147.033 163.174 144.433 160.974 142.5C158.774 140.567 156.041 139.6 152.774 139.6ZM195.24 122.7C192.907 122.7 190.973 122 189.44 120.6C187.973 119.2 187.24 117.433 187.24 115.3C187.24 113.167 187.973 111.433 189.44 110.1C190.973 108.7 192.907 108 195.24 108C197.573 108 199.473 108.7 200.94 110.1C202.473 111.433 203.24 113.167 203.24 115.3C203.24 117.433 202.473 119.2 200.94 120.6C199.473 122 197.573 122.7 195.24 122.7ZM188.84 180V130.4H201.64V180H188.84ZM215 180V130.4H226.3L227.4 137.1C229 134.7 231.1 132.8 233.7 131.4C236.367 129.933 239.433 129.2 242.9 129.2C250.567 129.2 256 132.167 259.2 138.1C261 135.367 263.4 133.2 266.4 131.6C269.467 130 272.8 129.2 276.4 129.2C282.867 129.2 287.833 131.133 291.3 135C294.767 138.867 296.5 144.533 296.5 152V180H283.7V153.2C283.7 148.933 282.867 145.667 281.2 143.4C279.6 141.133 277.1 140 273.7 140C270.233 140 267.433 141.267 265.3 143.8C263.233 146.333 262.2 149.867 262.2 154.4V180H249.4V153.2C249.4 148.933 248.567 145.667 246.9 143.4C245.233 141.133 242.667 140 239.2 140C235.8 140 233.033 141.267 230.9 143.8C228.833 146.333 227.8 149.867 227.8 154.4V180H215ZM332.752 181.2C327.752 181.2 323.319 180.133 319.452 178C315.586 175.867 312.552 172.867 310.352 169C308.152 165.133 307.052 160.667 307.052 155.6C307.052 150.467 308.119 145.9 310.252 141.9C312.452 137.9 315.452 134.8 319.252 132.6C323.119 130.333 327.652 129.2 332.852 129.2C337.719 129.2 342.019 130.267 345.752 132.4C349.486 134.533 352.386 137.467 354.452 141.2C356.586 144.867 357.652 148.967 357.652 153.5C357.652 154.233 357.619 155 357.552 155.8C357.552 156.6 357.519 157.433 357.452 158.3H319.752C320.019 162.167 321.352 165.2 323.752 167.4C326.219 169.6 329.186 170.7 332.652 170.7C335.252 170.7 337.419 170.133 339.152 169C340.952 167.8 342.286 166.267 343.152 164.4H356.152C355.219 167.533 353.652 170.4 351.452 173C349.319 175.533 346.652 177.533 343.452 179C340.319 180.467 336.752 181.2 332.752 181.2ZM332.852 139.6C329.719 139.6 326.952 140.5 324.552 142.3C322.152 144.033 320.619 146.7 319.952 150.3H344.652C344.452 147.033 343.252 144.433 341.052 142.5C338.852 140.567 336.119 139.6 332.852 139.6ZM388.918 181.2C384.518 181.2 380.651 180.5 377.318 179.1C373.985 177.633 371.318 175.633 369.318 173.1C367.318 170.567 366.118 167.633 365.718 164.3H378.618C379.018 166.233 380.085 167.9 381.818 169.3C383.618 170.633 385.918 171.3 388.718 171.3C391.518 171.3 393.551 170.733 394.818 169.6C396.151 168.467 396.818 167.167 396.818 165.7C396.818 163.567 395.885 162.133 394.018 161.4C392.151 160.6 389.551 159.833 386.218 159.1C384.085 158.633 381.918 158.067 379.718 157.4C377.518 156.733 375.485 155.9 373.618 154.9C371.818 153.833 370.351 152.5 369.218 150.9C368.085 149.233 367.518 147.2 367.518 144.8C367.518 140.4 369.251 136.7 372.718 133.7C376.251 130.7 381.185 129.2 387.518 129.2C393.385 129.2 398.051 130.567 401.518 133.3C405.051 136.033 407.151 139.8 407.818 144.6H395.718C394.985 140.933 392.218 139.1 387.418 139.1C385.018 139.1 383.151 139.567 381.818 140.5C380.551 141.433 379.918 142.6 379.918 144C379.918 145.467 380.885 146.633 382.818 147.5C384.751 148.367 387.318 149.167 390.518 149.9C393.985 150.7 397.151 151.6 400.018 152.6C402.951 153.533 405.285 154.967 407.018 156.9C408.751 158.767 409.618 161.467 409.618 165C409.685 168.067 408.885 170.833 407.218 173.3C405.551 175.767 403.151 177.7 400.018 179.1C396.885 180.5 393.185 181.2 388.918 181.2ZM423.657 157.9L422.257 110H435.957L434.457 157.9H423.657ZM429.357 180.7C426.957 180.7 424.99 179.967 423.457 178.5C421.99 177.033 421.257 175.267 421.257 173.2C421.257 171.067 421.99 169.267 423.457 167.8C424.99 166.333 426.957 165.6 429.357 165.6C431.624 165.6 433.49 166.333 434.957 167.8C436.49 169.267 437.257 171.067 437.257 173.2C437.257 175.267 436.49 177.033 434.957 178.5C433.49 179.967 431.624 180.7 429.357 180.7Z" fill="white" />
    <path d="M202.027 260V247.6H204.852L205.102 249.7C205.486 248.967 206.036 248.383 206.752 247.95C207.486 247.517 208.344 247.3 209.327 247.3C210.861 247.3 212.052 247.783 212.902 248.75C213.752 249.717 214.177 251.133 214.177 253V260H210.977V253.3C210.977 252.233 210.761 251.417 210.327 250.85C209.894 250.283 209.219 250 208.302 250C207.402 250 206.661 250.317 206.077 250.95C205.511 251.583 205.227 252.467 205.227 253.6V260H202.027ZM221.512 260.3C220.446 260.3 219.571 260.133 218.887 259.8C218.204 259.45 217.696 258.992 217.362 258.425C217.029 257.858 216.862 257.233 216.862 256.55C216.862 255.4 217.312 254.467 218.212 253.75C219.112 253.033 220.462 252.675 222.262 252.675H225.412V252.375C225.412 251.525 225.171 250.9 224.687 250.5C224.204 250.1 223.604 249.9 222.887 249.9C222.237 249.9 221.671 250.058 221.187 250.375C220.704 250.675 220.404 251.125 220.287 251.725H217.162C217.246 250.825 217.546 250.042 218.062 249.375C218.596 248.708 219.279 248.2 220.112 247.85C220.946 247.483 221.879 247.3 222.912 247.3C224.679 247.3 226.071 247.742 227.087 248.625C228.104 249.508 228.612 250.758 228.612 252.375V260H225.887L225.587 258C225.221 258.667 224.704 259.217 224.037 259.65C223.387 260.083 222.546 260.3 221.512 260.3ZM222.237 257.8C223.154 257.8 223.862 257.5 224.362 256.9C224.879 256.3 225.204 255.558 225.337 254.675H222.612C221.762 254.675 221.154 254.833 220.787 255.15C220.421 255.45 220.237 255.825 220.237 256.275C220.237 256.758 220.421 257.133 220.787 257.4C221.154 257.667 221.637 257.8 222.237 257.8ZM237.623 260V242H240.823V249.5C241.24 248.817 241.798 248.283 242.498 247.9C243.215 247.5 244.031 247.3 244.948 247.3C246.481 247.3 247.665 247.783 248.498 248.75C249.348 249.717 249.773 251.133 249.773 253V260H246.598V253.3C246.598 252.233 246.381 251.417 245.948 250.85C245.531 250.283 244.865 250 243.948 250C243.048 250 242.298 250.317 241.698 250.95C241.115 251.583 240.823 252.467 240.823 253.6V260H237.623ZM258.783 260.3C257.583 260.3 256.5 260.025 255.533 259.475C254.583 258.925 253.825 258.167 253.258 257.2C252.708 256.217 252.433 255.083 252.433 253.8C252.433 252.517 252.716 251.392 253.283 250.425C253.85 249.442 254.608 248.675 255.558 248.125C256.525 247.575 257.608 247.3 258.808 247.3C259.991 247.3 261.058 247.575 262.008 248.125C262.975 248.675 263.733 249.442 264.283 250.425C264.85 251.392 265.133 252.517 265.133 253.8C265.133 255.083 264.85 256.217 264.283 257.2C263.733 258.167 262.975 258.925 262.008 259.475C261.041 260.025 259.966 260.3 258.783 260.3ZM258.783 257.525C259.616 257.525 260.341 257.217 260.958 256.6C261.575 255.967 261.883 255.033 261.883 253.8C261.883 252.567 261.575 251.642 260.958 251.025C260.341 250.392 259.625 250.075 258.808 250.075C257.958 250.075 257.225 250.392 256.608 251.025C256.008 251.642 255.708 252.567 255.708 253.8C255.708 255.033 256.008 255.967 256.608 256.6C257.225 257.217 257.95 257.525 258.783 257.525ZM267.994 260V247.6H270.844L271.144 249.925C271.594 249.125 272.202 248.492 272.969 248.025C273.752 247.542 274.669 247.3 275.719 247.3V250.675H274.819C274.119 250.675 273.494 250.783 272.944 251C272.394 251.217 271.961 251.592 271.644 252.125C271.344 252.658 271.194 253.4 271.194 254.35V260H267.994ZM282.181 260.3C281.115 260.3 280.24 260.133 279.556 259.8C278.873 259.45 278.365 258.992 278.031 258.425C277.698 257.858 277.531 257.233 277.531 256.55C277.531 255.4 277.981 254.467 278.881 253.75C279.781 253.033 281.131 252.675 282.931 252.675H286.081V252.375C286.081 251.525 285.84 250.9 285.356 250.5C284.873 250.1 284.273 249.9 283.556 249.9C282.906 249.9 282.34 250.058 281.856 250.375C281.373 250.675 281.073 251.125 280.956 251.725H277.831C277.915 250.825 278.215 250.042 278.731 249.375C279.265 248.708 279.948 248.2 280.781 247.85C281.615 247.483 282.548 247.3 283.581 247.3C285.348 247.3 286.74 247.742 287.756 248.625C288.773 249.508 289.281 250.758 289.281 252.375V260H286.556L286.256 258C285.89 258.667 285.373 259.217 284.706 259.65C284.056 260.083 283.215 260.3 282.181 260.3ZM282.906 257.8C283.823 257.8 284.531 257.5 285.031 256.9C285.548 256.3 285.873 255.558 286.006 254.675H283.281C282.431 254.675 281.823 254.833 281.456 255.15C281.09 255.45 280.906 255.825 280.906 256.275C280.906 256.758 281.09 257.133 281.456 257.4C281.823 257.667 282.306 257.8 282.906 257.8ZM303.992 260.3C302.825 260.3 301.784 260.017 300.867 259.45C299.95 258.883 299.225 258.108 298.692 257.125C298.159 256.142 297.892 255.025 297.892 253.775C297.892 252.525 298.159 251.417 298.692 250.45C299.225 249.467 299.95 248.7 300.867 248.15C301.784 247.583 302.825 247.3 303.992 247.3C304.925 247.3 305.742 247.475 306.442 247.825C307.142 248.175 307.709 248.667 308.142 249.3V242H311.342V260H308.492L308.142 258.225C307.742 258.775 307.209 259.258 306.542 259.675C305.892 260.092 305.042 260.3 303.992 260.3ZM304.667 257.5C305.7 257.5 306.542 257.158 307.192 256.475C307.859 255.775 308.192 254.883 308.192 253.8C308.192 252.717 307.859 251.833 307.192 251.15C306.542 250.45 305.7 250.1 304.667 250.1C303.65 250.1 302.809 250.442 302.142 251.125C301.475 251.808 301.142 252.692 301.142 253.775C301.142 254.858 301.475 255.75 302.142 256.45C302.809 257.15 303.65 257.5 304.667 257.5ZM320.626 260.3C319.376 260.3 318.267 260.033 317.301 259.5C316.334 258.967 315.576 258.217 315.026 257.25C314.476 256.283 314.201 255.167 314.201 253.9C314.201 252.617 314.467 251.475 315.001 250.475C315.551 249.475 316.301 248.7 317.251 248.15C318.217 247.583 319.351 247.3 320.651 247.3C321.867 247.3 322.942 247.567 323.876 248.1C324.809 248.633 325.534 249.367 326.051 250.3C326.584 251.217 326.851 252.242 326.851 253.375C326.851 253.558 326.842 253.75 326.826 253.95C326.826 254.15 326.817 254.358 326.801 254.575H317.376C317.442 255.542 317.776 256.3 318.376 256.85C318.992 257.4 319.734 257.675 320.601 257.675C321.251 257.675 321.792 257.533 322.226 257.25C322.676 256.95 323.009 256.567 323.226 256.1H326.476C326.242 256.883 325.851 257.6 325.301 258.25C324.767 258.883 324.101 259.383 323.301 259.75C322.517 260.117 321.626 260.3 320.626 260.3ZM320.651 249.9C319.867 249.9 319.176 250.125 318.576 250.575C317.976 251.008 317.592 251.675 317.426 252.575H323.601C323.551 251.758 323.251 251.108 322.701 250.625C322.151 250.142 321.467 249.9 320.651 249.9ZM341.574 260.3C340.307 260.3 339.191 260.025 338.224 259.475C337.257 258.925 336.491 258.158 335.924 257.175C335.374 256.192 335.099 255.067 335.099 253.8C335.099 252.533 335.374 251.408 335.924 250.425C336.491 249.442 337.257 248.675 338.224 248.125C339.191 247.575 340.307 247.3 341.574 247.3C343.157 247.3 344.491 247.717 345.574 248.55C346.657 249.367 347.349 250.5 347.649 251.95H344.274C344.107 251.35 343.774 250.883 343.274 250.55C342.791 250.2 342.216 250.025 341.549 250.025C340.666 250.025 339.916 250.358 339.299 251.025C338.682 251.692 338.374 252.617 338.374 253.8C338.374 254.983 338.682 255.908 339.299 256.575C339.916 257.242 340.666 257.575 341.549 257.575C342.216 257.575 342.791 257.408 343.274 257.075C343.774 256.742 344.107 256.267 344.274 255.65H347.649C347.349 257.05 346.657 258.175 345.574 259.025C344.491 259.875 343.157 260.3 341.574 260.3ZM356.439 260.3C355.239 260.3 354.156 260.025 353.189 259.475C352.239 258.925 351.481 258.167 350.914 257.2C350.364 256.217 350.089 255.083 350.089 253.8C350.089 252.517 350.373 251.392 350.939 250.425C351.506 249.442 352.264 248.675 353.214 248.125C354.181 247.575 355.264 247.3 356.464 247.3C357.648 247.3 358.714 247.575 359.664 248.125C360.631 248.675 361.389 249.442 361.939 250.425C362.506 251.392 362.789 252.517 362.789 253.8C362.789 255.083 362.506 256.217 361.939 257.2C361.389 258.167 360.631 258.925 359.664 259.475C358.698 260.025 357.623 260.3 356.439 260.3ZM356.439 257.525C357.273 257.525 357.998 257.217 358.614 256.6C359.231 255.967 359.539 255.033 359.539 253.8C359.539 252.567 359.231 251.642 358.614 251.025C357.998 250.392 357.281 250.075 356.464 250.075C355.614 250.075 354.881 250.392 354.264 251.025C353.664 251.642 353.364 252.567 353.364 253.8C353.364 255.033 353.664 255.967 354.264 256.6C354.881 257.217 355.606 257.525 356.439 257.525ZM365.65 260V247.6H368.475L368.75 249.275C369.15 248.675 369.675 248.2 370.325 247.85C370.992 247.483 371.759 247.3 372.625 247.3C374.542 247.3 375.9 248.042 376.7 249.525C377.15 248.842 377.75 248.3 378.5 247.9C379.267 247.5 380.1 247.3 381 247.3C382.617 247.3 383.859 247.783 384.725 248.75C385.592 249.717 386.025 251.133 386.025 253V260H382.825V253.3C382.825 252.233 382.617 251.417 382.2 250.85C381.8 250.283 381.175 250 380.325 250C379.459 250 378.759 250.317 378.225 250.95C377.709 251.583 377.45 252.467 377.45 253.6V260H374.25V253.3C374.25 252.233 374.042 251.417 373.625 250.85C373.209 250.283 372.567 250 371.7 250C370.85 250 370.159 250.317 369.625 250.95C369.109 251.583 368.85 252.467 368.85 253.6V260H365.65ZM389.063 265.5V247.6H391.913L392.263 249.375C392.663 248.825 393.188 248.342 393.838 247.925C394.505 247.508 395.363 247.3 396.413 247.3C397.58 247.3 398.622 247.583 399.538 248.15C400.455 248.717 401.18 249.492 401.713 250.475C402.247 251.458 402.513 252.575 402.513 253.825C402.513 255.075 402.247 256.192 401.713 257.175C401.18 258.142 400.455 258.908 399.538 259.475C398.622 260.025 397.58 260.3 396.413 260.3C395.48 260.3 394.663 260.125 393.963 259.775C393.263 259.425 392.697 258.933 392.263 258.3V265.5H389.063ZM395.738 257.5C396.755 257.5 397.597 257.158 398.263 256.475C398.93 255.792 399.263 254.908 399.263 253.825C399.263 252.742 398.93 251.85 398.263 251.15C397.597 250.45 396.755 250.1 395.738 250.1C394.705 250.1 393.855 250.45 393.188 251.15C392.538 251.833 392.213 252.717 392.213 253.8C392.213 254.883 392.538 255.775 393.188 256.475C393.855 257.158 394.705 257.5 395.738 257.5ZM405.372 260V247.6H408.222L408.522 249.925C408.972 249.125 409.58 248.492 410.347 248.025C411.13 247.542 412.047 247.3 413.097 247.3V250.675H412.197C411.497 250.675 410.872 250.783 410.322 251C409.772 251.217 409.339 251.592 409.022 252.125C408.722 252.658 408.572 253.4 408.572 254.35V260H405.372ZM419.559 260.3C418.493 260.3 417.618 260.133 416.934 259.8C416.251 259.45 415.743 258.992 415.409 258.425C415.076 257.858 414.909 257.233 414.909 256.55C414.909 255.4 415.359 254.467 416.259 253.75C417.159 253.033 418.509 252.675 420.309 252.675H423.459V252.375C423.459 251.525 423.218 250.9 422.734 250.5C422.251 250.1 421.651 249.9 420.934 249.9C420.284 249.9 419.718 250.058 419.234 250.375C418.751 250.675 418.451 251.125 418.334 251.725H415.209C415.293 250.825 415.593 250.042 416.109 249.375C416.643 248.708 417.326 248.2 418.159 247.85C418.993 247.483 419.926 247.3 420.959 247.3C422.726 247.3 424.118 247.742 425.134 248.625C426.151 249.508 426.659 250.758 426.659 252.375V260H423.934L423.634 258C423.268 258.667 422.751 259.217 422.084 259.65C421.434 260.083 420.593 260.3 419.559 260.3ZM420.284 257.8C421.201 257.8 421.909 257.5 422.409 256.9C422.926 256.3 423.251 255.558 423.384 254.675H420.659C419.809 254.675 419.201 254.833 418.834 255.15C418.468 255.45 418.284 255.825 418.284 256.275C418.284 256.758 418.468 257.133 418.834 257.4C419.201 257.667 419.684 257.8 420.284 257.8ZM429.713 260V247.6H432.563L432.863 249.925C433.313 249.125 433.921 248.492 434.688 248.025C435.471 247.542 436.388 247.3 437.438 247.3V250.675H436.538C435.838 250.675 435.213 250.783 434.663 251C434.113 251.217 433.68 251.592 433.363 252.125C433.063 252.658 432.913 253.4 432.913 254.35V260H429.713Z" fill="#FFC641" />
</svg>
    