<svg width="195" height="211" viewBox="0 0 195 211" fill="none" xmlns="http://www.w3.org/2000/svg">
<path opacity="0.7" d="M97.4286 119.895L84.6074 127.297V210.182H110.25V127.297L97.4309 119.895H97.4286ZM110.25 0H84.6074V82.888L97.4286 90.2895L110.25 82.888V0Z" fill="white"/>
<path opacity="0.7" d="M12.8212 41.4451L0 63.6494L71.7825 105.093L0 146.537L12.8212 168.742L84.6014 127.298V112.495L71.7825 105.093L84.6014 97.692V82.8891L12.8212 41.4451Z" fill="white"/>
<path opacity="0.91" d="M84.6074 112.5V127.302L97.4286 119.901L84.6074 112.5ZM84.6074 82.8938V97.6967L97.4286 90.2952L84.6074 82.8938Z" fill="white"/>
<path opacity="0.7" d="M182.025 41.4451L110.242 82.8891V97.692L123.273 105.215L110.242 112.576V127.298L182.025 168.742L194.846 146.537H194.844L123.063 105.093L194.844 63.6494L182.025 41.4451Z" fill="white"/>
<path opacity="0.91" d="M110.249 112.576L103.792 116.221L97.4297 119.896L110.249 127.297V112.576ZM110.249 82.8887L97.4297 90.2901L110.249 97.6916V82.8887Z" fill="white"/>
<path opacity="0.91" d="M84.5982 97.6917L71.7793 105.093L84.5982 112.499V97.6917ZM110.238 97.6917V112.571L123.269 105.21L110.241 97.6917" fill="white"/>
<path opacity="0.97" d="M97.4286 90.2896L84.6074 97.691V112.494L97.4286 119.895L103.793 116.221L110.248 112.575V97.691L97.4286 90.2896Z" fill="white"/>
</svg>
